<svg width="22" height="26" viewBox="0 0 22 26" fill="none" xmlns="http://www.w3.org/2000/svg">
<g clip-path="url(#clip0_2001_4262)">
<path d="M2.90419 0C4.21677 0 5.44582 0.643967 6.19296 1.72316L12.4237 10.7232C13.372 12.0929 13.372 13.9071 12.4237 15.2768L6.19296 24.2768C5.44582 25.356 4.21677 26 2.90419 26H-55C-57.2091 26 -59 24.2091 -59 22V4C-59 1.79086 -57.2091 0 -55 0H2.90419Z" fill="#ECECEC"/>
<path d="M85.9046 0C87.217 0.000152121 88.4456 0.644568 89.1927 1.72363L95.4241 10.7236C96.3719 12.0932 96.3719 13.9068 95.4241 15.2764L89.1927 24.2764C88.4456 25.3554 87.217 25.9998 85.9046 26H9.00027C8.67053 26 8.35967 25.9199 8.08568 25.7782C7.6815 25.5693 7.66437 25.0407 7.92335 24.6666L14.4241 15.2764C15.372 13.9068 15.372 12.0932 14.4241 10.7236L7.92347 1.33261C7.66443 0.958399 7.68174 0.42973 8.08624 0.221122C8.36015 0.0798581 8.67086 1.47562e-05 9.00027 0H85.9046Z" fill="#ECECEC"/>
</g>
<defs>
<clipPath id="clip0_2001_4262">
<rect width="22" height="26" fill="white"/>
</clipPath>
</defs>
</svg>
