<svg width="24" height="24" viewBox="0 0 24 24" fill="none" xmlns="http://www.w3.org/2000/svg">
<g clip-path="url(#clip0_135_1383)">
<path d="M1.00086 4.75073H3.73659C4.27654 6.73737 6.32472 7.91016 8.31137 7.37022C9.58732 7.02342 10.5841 6.02668 10.9309 4.75073H22.9987C23.5509 4.75073 23.9985 4.30307 23.9985 3.75084C23.9985 3.19862 23.5509 2.75096 22.9987 2.75096H10.9309C10.3909 0.764267 8.34272 -0.408523 6.35608 0.131424C5.08013 0.478217 4.08338 1.47496 3.73659 2.75091H1.00086C0.448635 2.75091 0.000976562 3.19857 0.000976562 3.7508C0.000976562 4.30302 0.448635 4.75073 1.00086 4.75073Z" fill="#999999"/>
<path d="M22.9987 11.0001H20.2629C19.7241 9.01373 17.677 7.84029 15.6906 8.37911C14.4137 8.72553 13.4161 9.72307 13.0696 11.0001H1.00086C0.448635 11.0001 0.000976562 11.4478 0.000976562 12C0.000976562 12.5522 0.448635 12.9999 1.00086 12.9999H13.0696C13.6085 14.9862 15.6556 16.1597 17.6419 15.6209C18.9189 15.2744 19.9165 14.2769 20.2629 12.9999H22.9987C23.5509 12.9999 23.9985 12.5522 23.9985 12C23.9985 11.4478 23.5509 11.0001 22.9987 11.0001Z" fill="#999999"/>
<path d="M22.9987 19.2493H10.9309C10.3909 17.2626 8.34272 16.0898 6.35608 16.6298C5.08013 16.9766 4.08338 17.9733 3.73659 19.2493H1.00086C0.448635 19.2493 0.000976562 19.6969 0.000976562 20.2491C0.000976562 20.8014 0.448635 21.249 1.00086 21.249H3.73659C4.27654 23.2357 6.32472 24.4085 8.31137 23.8685C9.58732 23.5217 10.5841 22.525 10.9309 21.249H22.9987C23.5509 21.249 23.9985 20.8014 23.9985 20.2491C23.9985 19.6969 23.5509 19.2493 22.9987 19.2493Z" fill="#999999"/>
</g>
<defs>
<clipPath id="clip0_135_1383">
<rect width="24" height="24" fill="white"/>
</clipPath>
</defs>
</svg>
