<svg width="24" height="24" viewBox="0 0 24 24" fill="none" xmlns="http://www.w3.org/2000/svg">
<g clip-path="url(#clip0_179_869)">
<path d="M37 -2H-6V26.6667H37V-2Z" fill="#00AEC8"/>
<path d="M2.08315 6.36121C2.08315 6.94372 2.59915 7.243 3.0045 7.243C3.54917 7.243 3.84099 6.9119 3.84099 6.47875C3.84099 6.23307 3.79685 6.07885 3.68505 5.84407C3.68505 5.84407 2.78405 3.9449 2.43346 3.21075C2.3896 3.11901 2.37613 3.01495 2.37613 2.86216C2.37613 2.62595 2.60173 2.43216 2.83881 2.42671C3.05495 2.42155 3.29002 2.63111 3.29002 2.86961C3.29002 3.15972 3.14153 3.28872 2.98902 3.28872C2.80154 3.28872 2.72701 3.21075 2.72701 3.07745C2.72701 2.98457 2.77087 2.94415 2.83508 2.94415C2.99533 2.94415 2.94975 3.16345 2.94975 3.16345C2.98859 3.15544 3.02266 3.13235 3.04448 3.09924C3.0663 3.06613 3.07409 3.02571 3.06613 2.98686C3.06445 2.97702 3.06166 2.9674 3.05782 2.95819C3.11881 2.94482 3.17377 2.91191 3.21434 2.86445C3.17232 2.82029 3.11763 2.79024 3.05782 2.77845C3.09566 2.65261 3.04549 2.59069 2.93656 2.56489C2.95577 2.60715 2.96119 2.65439 2.95204 2.69991C2.78004 2.6506 2.51803 2.72857 2.51803 3.02957C2.51803 3.33057 2.72185 3.57768 3.10455 3.51519C3.01339 3.55933 2.96723 3.64935 2.95777 3.75054C3.00493 3.73305 3.05436 3.72243 3.10455 3.71901C3.05954 3.7987 2.99762 3.8675 3.0002 4.02459C3.07101 3.99163 3.13665 3.93114 3.22781 3.96955C3.08448 4.25364 3.26049 4.64523 3.70597 4.73753C3.54257 4.54375 3.46288 4.33448 3.46288 4.12607C3.46288 3.45126 3.64807 3.33774 3.64807 2.86847C3.64807 2.67239 3.54831 2.46025 3.35108 2.31577V2.3238C3.48151 2.28854 3.56522 2.22347 3.61309 2.13489C3.31525 2.04889 2.88181 2.05061 2.64932 2.14377C2.38157 2.17473 2.19495 2.38285 2.13991 2.48777C2.08487 2.59269 1.97823 2.97511 2.13991 3.31911C2.31736 3.69493 3.15242 5.49003 3.41271 6.05419C3.47019 6.17426 3.50053 6.3055 3.50158 6.43861C3.50158 6.78261 3.18911 6.90445 3.01167 6.90445C2.79953 6.90445 2.58339 6.74076 2.58339 6.53608C2.58339 6.40679 2.65276 6.32853 2.75309 6.32853C2.99303 6.32853 2.97841 6.53551 2.93054 6.66565C3.07989 6.59743 3.16675 6.47588 3.14267 6.34803C3.23689 6.33394 3.3224 6.28505 3.38233 6.211C3.32499 6.13618 3.25218 6.07999 3.14267 6.0777C3.19055 5.87904 3.05925 5.79533 2.93054 5.74861C2.97153 5.89452 2.99848 6.06222 2.75309 6.06222C2.57479 6.06222 2.43403 6.09318 2.35176 6.211C2.34689 6.05419 2.33255 5.43528 2.33255 5.43528C2.32223 5.20279 2.63986 5.2091 2.84167 5.27847C2.76542 5.01044 2.60919 4.86567 2.2477 4.90237C2.30353 4.88 2.35099 4.84078 2.38346 4.79017C2.41594 4.73955 2.43181 4.68007 2.42887 4.62C2.42887 4.40213 2.25401 4.16133 2.13963 4.08852L2.08315 6.36121Z" fill="#FDC514"/>
<path d="M2.14158 24.6027C2.14158 24.6027 1.86925 24.8346 1.77666 24.7174C1.62788 24.5299 2.23532 23.5974 2.23532 23.2689C2.23532 22.7302 1.88014 22.5834 1.4424 22.5066C1.148 22.4547 0.668403 22.5284 0.668403 22.5284C0.758416 22.6508 0.817183 22.6872 0.968829 22.697C0.863484 22.753 0.775774 22.8371 0.715486 22.9401C0.655199 23.0431 0.624706 23.1608 0.627409 23.28C0.627409 23.7436 0.816036 23.9345 0.816036 24.4571C0.816036 24.7472 0.581543 25.1164 0.581543 25.1164C0.996063 25.074 1.2016 24.6864 1.08493 24.374C1.11673 24.3682 1.14945 24.3703 1.18029 24.3799C1.21113 24.3895 1.2392 24.4065 1.26209 24.4293C1.29248 24.3433 1.2446 24.2427 1.1801 24.1564C1.23199 24.1277 1.26983 24.1452 1.3521 24.1621C1.34408 24.0738 1.29219 23.9795 1.16348 23.8909C1.53614 23.9884 1.76548 23.7249 1.76548 23.4497C1.76548 23.2413 1.62214 23.0923 1.4811 23.0923C1.42751 23.0935 1.37539 23.11 1.33089 23.1399C1.30423 23.0825 1.31828 23.0057 1.34522 22.9481C1.24231 22.9767 1.17666 23.0378 1.22339 23.1674C1.18834 23.1684 1.15387 23.1765 1.12208 23.1913C1.09029 23.2061 1.06185 23.2272 1.03849 23.2534C1.05999 23.2817 1.08807 23.3043 1.12029 23.3193C1.15251 23.3343 1.1879 23.3412 1.22339 23.3394C1.16606 23.4598 1.22998 23.5274 1.32401 23.5822C1.32401 23.5822 1.2641 23.3394 1.41632 23.3394C1.48483 23.3394 1.54732 23.362 1.54732 23.4638C1.54732 23.5532 1.47021 23.6765 1.29276 23.6685C1.11532 23.6604 0.971409 23.5443 0.971409 23.2574C0.971409 22.9928 1.18268 22.8609 1.45874 22.8526C1.70929 22.8449 1.89849 22.9819 1.89849 23.2439C1.89849 23.5922 1.40198 24.3869 1.40198 24.6973C1.40198 24.9301 1.60867 25.0602 1.81106 25.0602C2.07307 25.0602 2.29466 24.7971 2.29466 24.7971L2.14158 24.6027Z" fill="#FDC514"/>
<path d="M2.08315 18.3055C2.08315 17.7227 2.59915 17.4237 3.0045 17.4237C3.54917 17.4237 3.84099 17.7548 3.84099 18.1877C3.84099 18.4333 3.79685 18.5873 3.68505 18.8229C3.68505 18.8229 2.78405 20.7215 2.43346 21.4562C2.3896 21.5474 2.37613 21.6518 2.37613 21.8048C2.37613 22.0408 2.60173 22.2348 2.83881 22.24C3.05495 22.2452 3.29002 22.0356 3.29002 21.7968C3.29002 21.5064 3.14153 21.3777 2.98902 21.3777C2.80154 21.3777 2.72701 21.456 2.72701 21.5893C2.72701 21.6819 2.77087 21.7226 2.83508 21.7226C2.99533 21.7226 2.94975 21.503 2.94975 21.503C2.98846 21.5109 3.02245 21.5339 3.04431 21.5668C3.06617 21.5997 3.07412 21.6399 3.06642 21.6787C3.06448 21.6885 3.0616 21.6981 3.05782 21.7074C3.11873 21.7209 3.17363 21.7538 3.21434 21.8011C3.17212 21.845 3.11752 21.875 3.05782 21.8871C3.09566 22.0132 3.04549 22.0746 2.93656 22.1001C2.95577 22.0579 2.96119 22.0108 2.95204 21.9654C2.78004 22.0147 2.51803 21.9367 2.51803 21.636C2.51803 21.3353 2.72185 21.0876 3.10455 21.1507C3.01339 21.1062 2.96723 21.0156 2.95777 20.915C3.00497 20.9324 3.05437 20.9432 3.10455 20.9468C3.05954 20.8666 2.99762 20.7978 3.0002 20.641C3.07101 20.6736 3.13665 20.7341 3.22781 20.6957C3.08448 20.4113 3.26049 20.0203 3.70597 19.9275C3.54257 20.1215 3.46288 20.3308 3.46288 20.5389C3.46288 21.214 3.64807 21.3275 3.64807 21.7968C3.64529 21.9057 3.61697 22.0125 3.56538 22.1085C3.5138 22.2045 3.4404 22.2871 3.35108 22.3495V22.3415C3.48151 22.3767 3.56522 22.4418 3.61309 22.5304C3.31525 22.6164 2.88181 22.6147 2.64932 22.5221C2.38157 22.4905 2.19495 22.2824 2.13991 22.1781C2.08487 22.0737 1.97823 21.6907 2.13991 21.3467C2.31736 20.9709 3.15242 19.1764 3.41271 18.6119C3.47009 18.4919 3.50043 18.3608 3.50158 18.2278C3.50158 17.8838 3.18911 17.7614 3.01167 17.7614C2.79953 17.7614 2.58339 17.9254 2.58339 18.1301C2.58339 18.2596 2.65276 18.3376 2.75309 18.3376C2.99303 18.3376 2.97841 18.1312 2.93054 18.0005C3.07989 18.0687 3.16675 18.1903 3.14267 18.3178C3.23681 18.3325 3.32219 18.3815 3.38233 18.4554C3.32499 18.53 3.25218 18.5864 3.14267 18.5881C3.19055 18.7871 3.05925 18.8714 2.93054 18.9178C2.97153 18.7722 2.99848 18.6025 2.75309 18.6025C2.57479 18.6025 2.43403 18.5715 2.35176 18.454C2.34689 18.6105 2.33255 19.2297 2.33255 19.2297C2.32223 19.4622 2.63986 19.4556 2.84167 19.3862C2.76542 19.6545 2.60919 19.7993 2.2477 19.7629C2.30363 19.7849 2.35122 19.824 2.38373 19.8746C2.41625 19.9252 2.43204 19.9847 2.42887 20.0447C2.42887 20.2629 2.25401 20.5034 2.13963 20.5762L2.08315 18.3055Z" fill="#FDC514"/>
<path d="M2.19787 18.3055C2.19787 17.7227 1.68187 17.4237 1.27652 17.4237C0.730133 17.4237 0.439453 17.7548 0.439453 18.1877C0.439453 18.4333 0.483886 18.5873 0.595686 18.8229C0.595686 18.8229 1.49639 20.7215 1.84727 21.4562C1.89085 21.5474 1.90461 21.6518 1.90461 21.8048C1.90461 22.0408 1.67843 22.2348 1.44164 22.24C1.22578 22.2452 0.990427 22.0356 0.990427 21.7968C0.990427 21.5064 1.13863 21.3777 1.29114 21.3777C1.47891 21.3777 1.55373 21.456 1.55373 21.5893C1.55373 21.6819 1.50929 21.7226 1.44565 21.7226C1.28483 21.7226 1.33099 21.503 1.33099 21.503C1.29233 21.511 1.2584 21.534 1.2366 21.5669C1.2148 21.5998 1.2069 21.64 1.2146 21.6787C1.21652 21.6885 1.2194 21.6981 1.2232 21.7074C1.16237 21.7209 1.10756 21.7538 1.06697 21.8011C1.10907 21.845 1.16358 21.875 1.2232 21.8871C1.18536 22.0132 1.23581 22.0746 1.34475 22.1001C1.32561 22.0579 1.3203 22.0108 1.32955 21.9654C1.50155 22.0147 1.76357 21.9367 1.76357 21.636C1.76357 21.3353 1.55917 21.0876 1.17705 21.1507C1.26763 21.1062 1.31407 21.0156 1.32353 20.915C1.27645 20.9325 1.22713 20.9432 1.17705 20.9468C1.22177 20.8666 1.28369 20.7978 1.28111 20.641C1.2103 20.6736 1.14437 20.7341 1.05349 20.6957C1.19683 20.4113 1.0211 20.0203 0.57562 19.9275C0.738446 20.1215 0.818427 20.3308 0.818427 20.5389C0.818427 21.214 0.63324 21.3275 0.63324 21.7968C0.635928 21.9058 0.66421 22.0126 0.715802 22.1086C0.767393 22.2046 0.840846 22.2871 0.930226 22.3495V22.3415C0.799506 22.3767 0.716086 22.4418 0.668213 22.5304C0.966346 22.6164 1.3995 22.6147 1.63199 22.5221C1.89945 22.4905 2.08635 22.2824 2.14111 22.1781C2.19586 22.0737 2.30307 21.6907 2.14111 21.3467C1.96423 20.9709 1.12917 19.1764 0.868593 18.6119C0.811215 18.4919 0.780879 18.3608 0.779726 18.2278C0.779726 17.8838 1.09219 17.7614 1.26964 17.7614C1.48149 17.7614 1.69763 17.9254 1.69763 18.1301C1.69763 18.2596 1.62826 18.3376 1.52821 18.3376C1.28856 18.3376 1.30289 18.1312 1.35048 18.0005C1.20141 18.0687 1.11455 18.1903 1.13835 18.3178C1.04434 18.3324 0.95912 18.3815 0.899266 18.4554C0.9566 18.53 1.02913 18.5864 1.13835 18.5881C1.09076 18.7871 1.22177 18.8714 1.35048 18.9178C1.30977 18.7722 1.28311 18.6025 1.52821 18.6025C1.70623 18.6025 1.84727 18.5715 1.92955 18.454C1.93442 18.6105 1.94904 19.2297 1.94904 19.2297C1.95936 19.4622 1.64145 19.4556 1.43992 19.3862C1.51617 19.6545 1.67241 19.7993 2.03361 19.7629C1.97767 19.7849 1.93008 19.824 1.89757 19.8746C1.86506 19.9252 1.84927 19.9847 1.85243 20.0447C1.85243 20.2629 2.0273 20.5034 2.14168 20.5762L2.19787 18.3055Z" fill="#FDC514"/>
<path d="M2.14059 24.6027C2.14059 24.6027 2.41292 24.8346 2.5058 24.7174C2.65429 24.5299 2.04713 23.5974 2.04713 23.2689C2.04713 22.7302 2.40231 22.5834 2.84034 22.5066C3.13417 22.4547 3.61434 22.5284 3.61434 22.5284C3.52375 22.6508 3.46556 22.6872 3.31363 22.697C3.41897 22.753 3.50668 22.8371 3.56697 22.9401C3.62726 23.0431 3.65775 23.1608 3.65505 23.28C3.65505 23.7436 3.46642 23.9345 3.46642 24.4571C3.46642 24.7472 3.7012 25.1164 3.7012 25.1164C3.28639 25.074 3.08114 24.6864 3.19781 24.374C3.16592 24.3681 3.1331 24.3701 3.10214 24.3798C3.07119 24.3894 3.04303 24.4064 3.02008 24.4293C2.98998 24.3433 3.03785 24.2427 3.10207 24.1564C3.05047 24.1277 3.01234 24.1452 2.93007 24.1621C2.93809 24.0738 2.99027 23.9795 3.11898 23.8909C2.74631 23.9884 2.51698 23.7249 2.51698 23.4497C2.51698 23.2413 2.66031 23.0923 2.80164 23.0923C2.85531 23.0937 2.90745 23.1105 2.95185 23.1407C2.97823 23.0834 2.96447 23.0066 2.93723 22.9489C3.04043 22.9776 3.10579 23.0387 3.05907 23.1682C3.09419 23.1693 3.12874 23.1774 3.16062 23.1922C3.1925 23.207 3.22105 23.2281 3.24454 23.2542C3.22292 23.2825 3.19473 23.3052 3.16242 23.3201C3.13011 23.3351 3.09464 23.342 3.05907 23.3402C3.1164 23.4606 3.05247 23.5283 2.95902 23.583C2.95902 23.583 3.01865 23.3402 2.86643 23.3402C2.79791 23.3402 2.73571 23.3629 2.73571 23.4646C2.73571 23.5541 2.81253 23.6774 2.98969 23.6693C3.16685 23.6613 3.31105 23.5452 3.31105 23.2582C3.31105 22.9937 3.10006 22.8618 2.82371 22.8535C2.57317 22.8457 2.38425 22.9828 2.38425 23.2448C2.38425 23.5931 2.88019 24.3877 2.88019 24.6982C2.88019 24.9309 2.67379 25.0611 2.47111 25.0611C2.2091 25.0611 1.98779 24.7979 1.98779 24.7979L2.14059 24.6027Z" fill="#FDC514"/>
<path d="M2.0839 8.10812C2.0839 7.5259 2.5999 7.22662 3.00524 7.22662C3.54991 7.22662 3.84174 7.55772 3.84174 7.99059C3.84174 8.23598 3.79759 8.39049 3.68579 8.62527C3.68579 8.62527 2.7848 10.5242 2.4342 11.2586C2.39034 11.35 2.37687 11.4544 2.37687 11.6075C2.37687 11.8434 2.60248 12.0375 2.83955 12.0423C3.0557 12.0478 3.29076 11.8382 3.29076 11.5994C3.29076 11.3096 3.14227 11.1803 2.98976 11.1803C2.80228 11.1803 2.72775 11.2586 2.72775 11.3919C2.72775 11.4851 2.77161 11.5252 2.83582 11.5252C2.99607 11.5252 2.95049 11.3056 2.95049 11.3056C2.98907 11.314 3.02277 11.3373 3.04425 11.3704C3.06573 11.4036 3.07324 11.4438 3.06516 11.4825C3.06326 11.4917 3.06047 11.5007 3.05684 11.5094C3.11784 11.5231 3.17275 11.5562 3.21336 11.6037C3.17115 11.6477 3.11655 11.6777 3.05684 11.6897C3.09468 11.8156 3.04452 11.8769 2.93558 11.903C2.9548 11.8607 2.96021 11.8133 2.95106 11.7677C2.77906 11.8173 2.51705 11.739 2.51705 11.4386C2.51705 11.1382 2.72087 10.8902 3.10357 10.9513C3.01241 10.9074 2.96626 10.8174 2.9568 10.7162C3.00399 10.7336 3.0534 10.7444 3.10357 10.748C3.05856 10.6681 2.99664 10.599 2.99922 10.4422C3.07003 10.4748 3.13568 10.5353 3.22684 10.4972C3.0835 10.2128 3.25952 9.82182 3.705 9.72894C3.5416 9.92272 3.4619 10.132 3.4619 10.3404C3.4619 11.0155 3.64709 11.1287 3.64709 11.598C3.64431 11.707 3.61599 11.8138 3.56441 11.9098C3.51283 12.0059 3.43942 12.0885 3.3501 12.151V12.1427C3.48054 12.1779 3.56424 12.2433 3.61212 12.3316C3.31427 12.4176 2.88083 12.4159 2.64834 12.3233C2.3806 12.2917 2.19398 12.0839 2.13894 11.9793C2.0839 11.8746 1.97726 11.4919 2.13894 11.1479C2.31638 10.7721 3.15144 8.97701 3.41174 8.41256C3.46912 8.29267 3.49946 8.16163 3.5006 8.02872C3.5006 7.68472 3.18814 7.5626 3.01069 7.5626C2.79856 7.5626 2.58241 7.72628 2.58241 7.93068C2.58241 8.06025 2.65178 8.13822 2.75212 8.13822C2.99206 8.13822 2.97744 7.93154 2.92956 7.80168C3.07892 7.86933 3.16578 7.99088 3.1417 8.11873C3.2359 8.13305 3.32136 8.18201 3.38135 8.25604C3.32402 8.33058 3.2512 8.38705 3.1417 8.38934C3.18957 8.58772 3.05828 8.672 2.92956 8.71844C2.97113 8.5751 2.9998 8.40597 2.75298 8.40597C2.57467 8.40597 2.43392 8.37444 2.35164 8.2569C2.34677 8.41342 2.33244 9.03262 2.33244 9.03262C2.32212 9.26511 2.63974 9.25852 2.84156 9.18972C2.7653 9.45746 2.60907 9.60223 2.24758 9.56582C2.30339 9.58813 2.35084 9.6273 2.38331 9.67787C2.41579 9.72844 2.43168 9.78788 2.42876 9.8479C2.42876 10.0658 2.25389 10.3066 2.13951 10.3791L2.0839 8.10812Z" fill="#FDC514"/>
<path d="M2.19787 8.10812C2.19787 7.5259 1.68187 7.22662 1.27652 7.22662C0.730133 7.22662 0.439453 7.55772 0.439453 7.99059C0.439453 8.23598 0.483886 8.39049 0.595686 8.62527C0.595686 8.62527 1.49639 10.5242 1.84727 11.2586C1.89085 11.35 1.90461 11.4544 1.90461 11.6075C1.90461 11.8434 1.67843 12.0375 1.44164 12.0423C1.22578 12.0478 0.990426 11.8382 0.990426 11.5994C0.990426 11.3096 1.13863 11.1803 1.29114 11.1803C1.47891 11.1803 1.55373 11.2586 1.55373 11.3919C1.55373 11.4851 1.50929 11.5252 1.44565 11.5252C1.28483 11.5252 1.33099 11.3056 1.33099 11.3056C1.29232 11.3141 1.25857 11.3375 1.23709 11.3707C1.21561 11.4039 1.20814 11.4443 1.21632 11.4831C1.21816 11.4921 1.22085 11.5009 1.22435 11.5094C1.16349 11.5233 1.1087 11.5563 1.06811 11.6037C1.11022 11.6476 1.16473 11.6776 1.22435 11.6897C1.18651 11.8156 1.23696 11.8769 1.34589 11.903C1.3269 11.8606 1.32159 11.8133 1.3307 11.7677C1.5027 11.8173 1.76471 11.739 1.76471 11.4386C1.76471 11.1382 1.56032 10.8902 1.17819 10.9513C1.26878 10.9074 1.31522 10.8174 1.32468 10.7162C1.27759 10.7337 1.22828 10.7444 1.17819 10.748C1.22291 10.6681 1.28483 10.599 1.28225 10.4422C1.21145 10.4748 1.14551 10.5353 1.05464 10.4972C1.19797 10.2128 1.02225 9.82182 0.576766 9.72894C0.739593 9.92272 0.819573 10.132 0.819573 10.3404C0.819573 11.0155 0.634387 11.1287 0.634387 11.598C0.637166 11.707 0.665485 11.8138 0.717067 11.9098C0.768648 12.0059 0.842052 12.0885 0.931373 12.151V12.1427C0.800653 12.1779 0.717233 12.2433 0.669359 12.3316C0.967493 12.4176 1.40065 12.4159 1.63313 12.3233C1.90059 12.2917 2.0875 12.0839 2.14225 11.9793C2.19701 11.8746 2.30422 11.4919 2.14225 11.1479C1.96538 10.7721 1.13032 8.97701 0.86974 8.41256C0.812358 8.29267 0.782021 8.16163 0.780873 8.02872C0.780873 7.68472 1.09334 7.5626 1.27079 7.5626C1.48263 7.5626 1.69878 7.72628 1.69878 7.93068C1.69878 8.06025 1.62941 8.13822 1.52936 8.13822C1.28971 8.13822 1.30404 7.93154 1.35163 7.80168C1.20256 7.86933 1.1157 7.99088 1.13949 8.11873C1.04548 8.13313 0.960224 8.18209 0.900413 8.25604C0.957747 8.33058 1.03027 8.38705 1.13949 8.38934C1.09191 8.58772 1.22291 8.672 1.35163 8.71844C1.31092 8.57252 1.28426 8.40511 1.52936 8.40511C1.70738 8.40511 1.84842 8.37358 1.93069 8.25604C1.93557 8.41256 1.95019 9.03176 1.95019 9.03176C1.96051 9.26425 1.64259 9.25766 1.44107 9.18886C1.51732 9.4566 1.67355 9.60137 2.03475 9.56496C1.97897 9.58731 1.93155 9.62649 1.89908 9.67704C1.8666 9.7276 1.8507 9.78702 1.85358 9.84704C1.85358 10.0649 2.02845 10.3057 2.14283 10.3782L2.19787 8.10812Z" fill="#FDC514"/>
<path d="M2.19787 6.36123C2.19787 6.94373 1.68187 7.24301 1.27652 7.24301C0.730133 7.24301 0.439453 6.91191 0.439453 6.47876C0.439453 6.23309 0.483886 6.07886 0.595686 5.84408C0.595686 5.84408 1.49639 3.94491 1.84727 3.21076C1.89085 3.11903 1.90461 3.01497 1.90461 2.86217C1.90461 2.62596 1.67843 2.43217 1.44164 2.42673C1.22578 2.42157 0.990427 2.63112 0.990427 2.86963C0.990427 3.15973 1.13863 3.28873 1.29114 3.28873C1.47891 3.28873 1.55373 3.21076 1.55373 3.07746C1.55373 2.98458 1.50929 2.94416 1.44565 2.94416C1.28483 2.94416 1.33099 3.16346 1.33099 3.16346C1.2924 3.15507 1.2587 3.13177 1.23722 3.09864C1.21575 3.06551 1.20823 3.02523 1.21632 2.98659C1.21762 2.97729 1.21993 2.96815 1.2232 2.95935C1.16231 2.94593 1.10746 2.91302 1.06697 2.86561C1.10888 2.82145 1.16347 2.7914 1.2232 2.77961C1.18536 2.65377 1.23581 2.59185 1.34475 2.56605C1.32576 2.60838 1.32045 2.65557 1.32955 2.70107C1.50155 2.65176 1.76357 2.72973 1.76357 3.03073C1.76357 3.33173 1.55917 3.57884 1.17705 3.51635C1.26763 3.56049 1.31407 3.65051 1.32353 3.7517C1.27647 3.73421 1.22714 3.72359 1.17705 3.72017C1.22177 3.79986 1.28369 3.86866 1.28111 4.02575C1.2103 3.99279 1.14437 3.9323 1.05349 3.97071C1.19683 4.2548 1.0211 4.64639 0.57562 4.73869C0.738446 4.54491 0.818427 4.33564 0.818427 4.12723C0.818427 3.45242 0.63324 3.3389 0.63324 2.86963C0.636018 2.76068 0.664339 2.65391 0.715923 2.55792C0.767507 2.46192 0.840911 2.37938 0.930226 2.31693V2.32496C0.799506 2.2897 0.716086 2.22463 0.668213 2.13605C0.966346 2.05005 1.3995 2.05177 1.63199 2.14493C1.89945 2.17589 2.08635 2.38401 2.14111 2.48893C2.19586 2.59385 2.30307 2.97627 2.14111 3.32027C1.96423 3.69609 1.12917 5.49119 0.868593 6.05535C0.811112 6.17542 0.780772 6.30666 0.779726 6.43977C0.779726 6.78377 1.09219 6.90561 1.26964 6.90561C1.48149 6.90561 1.69763 6.74192 1.69763 6.53724C1.69763 6.40795 1.62826 6.32969 1.52821 6.32969C1.28856 6.32969 1.30289 6.53667 1.35048 6.66681C1.20141 6.59859 1.11455 6.47704 1.13835 6.34919C1.04436 6.33491 0.959089 6.28604 0.899266 6.21216C0.9566 6.13734 1.02913 6.08115 1.13835 6.07886C1.09076 5.8802 1.22177 5.79649 1.35048 5.74977C1.30977 5.89568 1.28311 6.06338 1.52821 6.06338C1.70623 6.06338 1.84727 6.09434 1.92955 6.21216C1.93442 6.05535 1.94904 5.43644 1.94904 5.43644C1.95936 5.20395 1.64145 5.21026 1.43992 5.27963C1.51617 5.0116 1.67241 4.86683 2.03361 4.90353C1.97822 4.88095 1.93119 4.84175 1.899 4.79134C1.86681 4.74092 1.85104 4.68177 1.85387 4.62202C1.85387 4.40415 2.02873 4.16335 2.14311 4.09054L2.19787 6.36123Z" fill="#FDC514"/>
<path d="M2.19787 16.5582C2.19787 17.141 1.68187 17.4403 1.27652 17.4403C0.730133 17.4403 0.439453 17.1089 0.439453 16.676C0.439453 16.4304 0.483886 16.2747 0.595686 16.0411C0.595686 16.0411 1.49639 14.1422 1.84727 13.4077C1.89085 13.3163 1.90461 13.2122 1.90461 13.0589C1.90461 12.8229 1.67843 12.6303 1.44164 12.624C1.22578 12.6188 0.990426 12.8284 0.990426 13.0669C0.990426 13.3573 1.13863 13.486 1.29114 13.486C1.47891 13.486 1.55373 13.4077 1.55373 13.2744C1.55373 13.1818 1.50929 13.1411 1.44565 13.1411C1.28483 13.1411 1.33099 13.3607 1.33099 13.3607C1.29232 13.3523 1.25857 13.3289 1.23709 13.2956C1.21561 13.2624 1.20814 13.222 1.21632 13.1833C1.21816 13.1743 1.22085 13.1654 1.22435 13.1569C1.16338 13.1433 1.10853 13.1102 1.06811 13.0626C1.11022 13.0187 1.16473 12.9887 1.22435 12.9766C1.18651 12.8505 1.23696 12.7891 1.34589 12.763C1.3269 12.8055 1.32159 12.8528 1.3307 12.8983C1.5027 12.849 1.76471 12.927 1.76471 13.2277C1.76471 13.5284 1.56032 13.7761 1.17819 13.7136C1.26878 13.7572 1.31522 13.8481 1.32468 13.9487C1.27759 13.9312 1.22828 13.9205 1.17819 13.9169C1.22291 13.9966 1.28483 14.0659 1.28225 14.2227C1.21145 14.1901 1.14551 14.1296 1.05464 14.1683C1.19797 14.4526 1.02225 14.8434 0.576766 14.936C0.739593 14.7425 0.819573 14.5329 0.819573 14.3245C0.819573 13.6497 0.634387 13.5359 0.634387 13.0669C0.637165 12.958 0.665486 12.8512 0.71707 12.7552C0.768653 12.6592 0.842058 12.5766 0.931373 12.5142V12.5222C0.800653 12.487 0.717233 12.4219 0.669359 12.3333C0.967493 12.2473 1.40065 12.249 1.63313 12.3416C1.90059 12.3732 2.0875 12.5813 2.14225 12.6856C2.19701 12.79 2.30422 13.173 2.14225 13.517C1.96538 13.8928 1.13032 15.6879 0.86974 16.2518C0.812388 16.3718 0.782054 16.5029 0.780873 16.6359C0.780873 16.9799 1.09334 17.102 1.27079 17.102C1.48263 17.102 1.69878 16.9386 1.69878 16.7339C1.69878 16.6041 1.62941 16.5264 1.52936 16.5264C1.28971 16.5264 1.30404 16.7331 1.35163 16.8635C1.20256 16.7953 1.1157 16.6743 1.13949 16.5459C1.04538 16.5316 0.960065 16.4825 0.900413 16.4083C0.957747 16.334 1.03027 16.2778 1.13949 16.2756C1.09191 16.0769 1.22291 15.9926 1.35163 15.9465C1.31092 16.0918 1.28426 16.2601 1.52936 16.2601C1.70738 16.2601 1.84842 16.2916 1.93069 16.4083C1.93557 16.252 1.95019 15.6343 1.95019 15.6343C1.96051 15.4015 1.64259 15.4078 1.44107 15.4775C1.51732 15.2097 1.67355 15.0644 2.03475 15.1008C1.97882 15.0788 1.93123 15.0397 1.89872 14.9891C1.86621 14.9385 1.85042 14.879 1.85358 14.819C1.85358 14.6008 2.02845 14.3603 2.14283 14.2875L2.19787 16.5582Z" fill="#FDC514"/>
<path d="M2.0841 16.5582C2.0841 17.141 2.6001 17.4403 3.00545 17.4403C3.55011 17.4403 3.84194 17.1089 3.84194 16.676C3.84194 16.4304 3.79779 16.2747 3.68599 16.0411C3.68599 16.0411 2.785 14.1422 2.43441 13.4077C2.39055 13.3163 2.37707 13.2122 2.37707 13.0589C2.37707 12.8229 2.60268 12.6303 2.83975 12.624C3.0559 12.6188 3.29097 12.8284 3.29097 13.0669C3.29097 13.3573 3.14247 13.486 2.98997 13.486C2.80249 13.486 2.72795 13.4077 2.72795 13.2744C2.72795 13.1818 2.77181 13.1411 2.83603 13.1411C2.99627 13.1411 2.95069 13.3607 2.95069 13.3607C2.9894 13.3523 3.0232 13.329 3.04469 13.2957C3.06618 13.2624 3.07362 13.222 3.06536 13.1833C3.06356 13.1742 3.06087 13.1654 3.05733 13.1569C3.1184 13.1434 3.17336 13.1103 3.21385 13.0626C3.17164 13.0187 3.11704 12.9887 3.05733 12.9766C3.09517 12.8505 3.04501 12.7891 2.93607 12.763C2.95529 12.8054 2.9607 12.8527 2.95155 12.8983C2.77955 12.849 2.51754 12.927 2.51754 13.2277C2.51754 13.5284 2.72136 13.7761 3.10406 13.7136C3.0129 13.7572 2.96675 13.8481 2.95729 13.9487C3.00448 13.9313 3.05389 13.9205 3.10406 13.9169C3.05905 13.9966 2.99713 14.0659 2.99971 14.2227C3.07052 14.1901 3.13617 14.1296 3.22733 14.1683C3.08399 14.4526 3.26001 14.8434 3.70549 14.936C3.54209 14.7425 3.46239 14.5329 3.46239 14.3245C3.46239 13.6497 3.64758 13.5359 3.64758 13.0669C3.64758 12.8705 3.54782 12.6587 3.35059 12.5142V12.5222C3.48103 12.487 3.56473 12.4219 3.61261 12.3333C3.31476 12.2473 2.88132 12.249 2.64883 12.3416C2.38109 12.3732 2.19447 12.5813 2.13943 12.6856C2.08439 12.79 1.97775 13.173 2.13943 13.517C2.31687 13.8928 3.15193 15.6879 3.41223 16.2518C3.46958 16.3718 3.49991 16.5029 3.50109 16.6359C3.50109 16.9799 3.18863 17.102 3.01118 17.102C2.79905 17.102 2.5829 16.9386 2.5829 16.7339C2.5829 16.6041 2.65227 16.5264 2.75261 16.5264C2.99255 16.5264 2.97793 16.7331 2.93005 16.8635C3.07941 16.7953 3.16627 16.6743 3.14219 16.5459C3.2365 16.5317 3.32205 16.4826 3.38184 16.4083C3.32451 16.334 3.25169 16.2778 3.14219 16.2756C3.19006 16.0769 3.05877 15.9926 2.93005 15.9465C2.97162 16.0924 3.00029 16.2618 2.75347 16.2618C2.57516 16.2618 2.43441 16.2933 2.35213 16.41C2.34726 16.2538 2.33293 15.636 2.33293 15.636C2.32261 15.4032 2.64023 15.4095 2.84205 15.4792C2.76579 15.2114 2.60956 15.0661 2.24807 15.1025C2.30401 15.0805 2.35159 15.0414 2.38411 14.9908C2.41662 14.9403 2.43241 14.8808 2.42925 14.8207C2.42925 14.6026 2.25438 14.3621 2.14 14.2892L2.0841 16.5582Z" fill="#FDC514"/>
<path d="M2.14087 0.0639016C2.14087 0.0639016 2.41321 -0.168298 2.50609 -0.0507651C2.65458 0.136715 2.04742 1.06924 2.04742 1.39747C2.04742 1.93641 2.4026 2.08318 2.84063 2.15972C3.13446 2.21132 3.61463 2.13822 3.61463 2.13822C3.52404 2.01524 3.46585 1.97941 3.31391 1.96938C3.4193 1.91349 3.50705 1.82937 3.56735 1.72644C3.62765 1.62352 3.65811 1.50584 3.65533 1.38658C3.65533 0.923042 3.46671 0.732122 3.46671 0.208955C3.46671 -0.0805785 3.70149 -0.450378 3.70149 -0.450378C3.28754 -0.409958 3.08114 -0.0220985 3.19781 0.289795C3.16597 0.295688 3.13317 0.293786 3.10222 0.284251C3.07127 0.274717 3.04309 0.257833 3.02008 0.235042C2.98998 0.321042 3.03785 0.421662 3.10207 0.507375C3.05047 0.536042 3.01234 0.518555 2.93007 0.501642C2.93809 0.590222 2.99027 0.684822 3.11898 0.773402C2.74631 0.675648 2.51698 0.938808 2.51698 1.21458C2.51698 1.4227 2.66031 1.57206 2.80164 1.57206C2.85517 1.57054 2.90721 1.55405 2.95185 1.52447C2.97823 1.5818 2.96447 1.65863 2.93723 1.71568C3.04043 1.68701 3.10579 1.62624 3.05907 1.49695C3.09418 1.49584 3.12871 1.48765 3.16058 1.47287C3.19245 1.4581 3.22101 1.43703 3.24454 1.41095C3.22288 1.38268 3.19469 1.36009 3.16239 1.34511C3.13009 1.33014 3.09463 1.32322 3.05907 1.32495C3.1164 1.20426 3.05247 1.13632 2.95902 1.08157C2.95902 1.08157 3.01865 1.32495 2.86643 1.32495C2.79791 1.32495 2.73571 1.3023 2.73571 1.19996C2.73571 1.11109 2.81253 0.987828 2.98969 0.995855C3.16685 1.00388 3.31105 1.1197 3.31105 1.40665C3.31105 1.67153 3.10006 1.80311 2.82371 1.81142C2.57317 1.81945 2.38425 1.68185 2.38425 1.41984C2.38425 1.07182 2.88019 0.277468 2.88019 -0.0329917C2.88019 -0.266052 2.67379 -0.396198 2.47111 -0.396198C2.2091 -0.396198 1.98779 -0.132752 1.98779 -0.132752L2.14087 0.0639016Z" fill="#FDC514"/>
<path d="M2.14158 0.0639016C2.14158 0.0639016 1.86925 -0.168298 1.77666 -0.0507651C1.62788 0.136715 2.23532 1.06924 2.23532 1.39747C2.23532 1.93641 1.88014 2.08318 1.4424 2.15972C1.148 2.21132 0.668403 2.13822 0.668403 2.13822C0.758416 2.01524 0.817183 1.97941 0.968829 1.96938C0.863442 1.91349 0.775688 1.82937 0.71539 1.72644C0.655091 1.62352 0.624628 1.50584 0.627409 1.38658C0.627409 0.923042 0.816036 0.732122 0.816036 0.208955C0.816036 -0.0805785 0.581543 -0.450378 0.581543 -0.450378C0.996063 -0.408238 1.2016 -0.0203784 1.08493 0.291515C1.1168 0.297425 1.14963 0.295446 1.18056 0.285753C1.21149 0.276059 1.23958 0.258944 1.26238 0.235902C1.29276 0.321902 1.24489 0.422522 1.18039 0.508235C1.23228 0.536902 1.27012 0.519415 1.35239 0.502502C1.34436 0.591082 1.29248 0.685682 1.16376 0.774262C1.53643 0.676508 1.76576 0.939668 1.76576 1.21544C1.76576 1.42356 1.62243 1.57292 1.48139 1.57292C1.42786 1.5714 1.37582 1.55491 1.33118 1.52533C1.30452 1.58266 1.31856 1.65949 1.34551 1.71654C1.2426 1.68787 1.17695 1.62709 1.22368 1.49781C1.18863 1.49679 1.15416 1.48864 1.12237 1.47385C1.09058 1.45907 1.06214 1.43795 1.03878 1.41181C1.06033 1.38357 1.08841 1.36099 1.12062 1.34601C1.15283 1.33103 1.1882 1.3241 1.22368 1.32581C1.16634 1.20512 1.23027 1.13718 1.3243 1.08243C1.3243 1.08243 1.26438 1.32581 1.4166 1.32581C1.48512 1.32581 1.54761 1.30316 1.54761 1.20082C1.54761 1.11196 1.4705 0.988688 1.29305 0.996715C1.1156 1.00474 0.971696 1.12056 0.971696 1.40751C0.971696 1.67239 1.18297 1.80397 1.45903 1.81228C1.70958 1.82031 1.89878 1.68271 1.89878 1.4207C1.89878 1.07268 1.40227 0.278328 1.40227 -0.0321317C1.40227 -0.265192 1.60896 -0.395338 1.81134 -0.395338C2.07336 -0.395338 2.29495 -0.131892 2.29495 -0.131892L2.14158 0.0639016Z" fill="#FDC514"/>
<path d="M16.0098 8.54472C16.1436 8.56966 16.2104 8.4957 16.2299 8.39422C16.2563 8.25892 16.1995 7.57837 16.1995 7.57837C16.1995 7.57837 15.8899 8.18524 15.8633 8.31998C15.8432 8.42117 15.8767 8.51749 16.0098 8.54444" fill="#FDC514"/>
<path d="M16.4964 8.69465C16.6228 8.74568 16.7022 8.68576 16.7412 8.59059C16.7934 8.46331 16.8685 7.78448 16.8685 7.78448C16.8685 7.78448 16.4479 8.31797 16.3961 8.44554C16.3574 8.541 16.3711 8.64162 16.4964 8.69465Z" fill="#FDC514"/>
<path d="M16.9474 8.93774C17.0621 9.01313 17.151 8.97013 17.2074 8.88413C17.2831 8.76947 17.4872 8.11902 17.4872 8.11902C17.4872 8.11902 16.9712 8.55934 16.8967 8.67372C16.8394 8.75972 16.8342 8.86149 16.9474 8.93774Z" fill="#FDC514"/>
<path d="M17.3404 9.26601C17.4379 9.36204 17.5342 9.33796 17.6061 9.26601C17.7022 9.16854 18.0278 8.57056 18.0278 8.57056C18.0278 8.57056 17.4379 8.90051 17.3418 8.99798C17.2696 9.07079 17.2444 9.16998 17.3418 9.26716" fill="#FDC514"/>
<path d="M17.6639 9.66421C17.741 9.77888 17.8399 9.77314 17.9248 9.71581C18.0375 9.63927 18.472 9.11725 18.472 9.11725C18.472 9.11725 17.8299 9.32422 17.7167 9.40076C17.6321 9.4581 17.5883 9.54983 17.6639 9.66421Z" fill="#FDC514"/>
<path d="M17.9034 10.1196C17.957 10.2461 18.055 10.261 18.149 10.2214C18.2746 10.1687 18.8012 9.74268 18.8012 9.74268C18.8012 9.74268 18.1318 9.81864 18.0063 9.87139C17.912 9.91095 17.8515 9.99236 17.9034 10.1196Z" fill="#FDC514"/>
<path d="M18.0512 10.6133C18.0799 10.748 18.1725 10.7818 18.2728 10.7618C18.4061 10.7348 19.0044 10.4209 19.0044 10.4209C19.0044 10.4209 18.3333 10.3636 18.1997 10.3902C18.0997 10.4103 18.0249 10.4783 18.0512 10.6133Z" fill="#FDC514"/>
<path d="M18.1011 11.1274C18.1028 11.2652 18.1871 11.3168 18.2897 11.3168C18.4256 11.3168 19.0732 11.1274 19.0732 11.1274C19.0732 11.1274 18.4256 10.9379 18.2897 10.9379C18.1879 10.9379 18.1011 10.9895 18.1011 11.1274Z" fill="#FDC514"/>
<path d="M18.0517 11.641C18.027 11.7763 18.1001 11.844 18.2002 11.8641C18.3338 11.8907 19.0049 11.8331 19.0049 11.8331C19.0049 11.8331 18.4066 11.5195 18.2733 11.4925C18.173 11.4722 18.0781 11.5057 18.0517 11.641Z" fill="#FDC514"/>
<path d="M17.9032 12.1349C17.8528 12.2628 17.9118 12.3434 18.0061 12.3829C18.1317 12.4359 18.8011 12.5119 18.8011 12.5119C18.8011 12.5119 18.2745 12.0856 18.1489 12.0332C18.0549 11.9933 17.9554 12.0077 17.9032 12.1349Z" fill="#FDC514"/>
<path d="M17.6633 12.5914C17.5891 12.7061 17.6315 12.7978 17.716 12.8549C17.8307 12.9317 18.4714 13.1387 18.4714 13.1387C18.4714 13.1387 18.0368 12.6164 17.9242 12.5401C17.8382 12.4828 17.7387 12.4768 17.6633 12.5914Z" fill="#FDC514"/>
<path d="M17.3403 12.9892C17.2454 13.0878 17.2695 13.1853 17.3403 13.2584C17.4363 13.3559 18.0263 13.6855 18.0263 13.6855C18.0263 13.6855 17.7006 13.0878 17.6046 12.9904C17.5326 12.9176 17.4352 12.8918 17.3389 12.9904" fill="#FDC514"/>
<path d="M16.9468 13.3165C16.8347 13.3945 16.8393 13.4948 16.8961 13.5808C16.9712 13.6955 17.4866 14.1355 17.4866 14.1355C17.4866 14.1355 17.2825 13.4848 17.2068 13.3701C17.1495 13.2841 17.0595 13.24 16.9468 13.3165Z" fill="#FDC514"/>
<path d="M16.4978 13.56C16.3728 13.6142 16.3588 13.7137 16.3975 13.8091C16.4494 13.9367 16.8699 14.4702 16.8699 14.4702C16.8699 14.4702 16.7948 13.7913 16.7426 13.6641C16.7036 13.5686 16.6237 13.5073 16.4978 13.56Z" fill="#FDC514"/>
<path d="M14.0591 13.3166C13.9445 13.2415 13.8556 13.2842 13.7988 13.3702C13.7237 13.4849 13.519 14.1356 13.519 14.1356C13.519 14.1356 14.035 13.6953 14.1099 13.5809C14.1672 13.4949 14.1724 13.3932 14.0591 13.3166Z" fill="#FDC514"/>
<path d="M13.665 12.9892C13.5675 12.8929 13.4715 12.9176 13.3992 12.9892C13.3032 13.0867 12.9775 13.6844 12.9775 13.6844C12.9775 13.6844 13.5675 13.3547 13.6638 13.2573C13.7358 13.1842 13.761 13.0853 13.6638 12.9881" fill="#FDC514"/>
<path d="M13.3426 12.5912C13.2658 12.4766 13.1669 12.4826 13.082 12.5399C12.9691 12.6162 12.5342 13.1385 12.5342 13.1385C12.5342 13.1385 13.1763 12.9315 13.2895 12.8547C13.3755 12.7973 13.418 12.7059 13.3426 12.5912Z" fill="#FDC514"/>
<path d="M13.1034 12.1349C13.0498 12.0082 12.9518 11.9933 12.8577 12.0331C12.7322 12.0856 12.2056 12.5119 12.2056 12.5119C12.2056 12.5119 12.8752 12.4359 13.0008 12.3829C13.0948 12.3433 13.1556 12.2622 13.1034 12.1349Z" fill="#FDC514"/>
<path d="M12.9553 11.6411C12.9267 11.5064 12.8341 11.4723 12.734 11.4926C12.6007 11.5196 12.0024 11.8332 12.0024 11.8332C12.0024 11.8332 12.6735 11.8905 12.8071 11.8641C12.9069 11.8441 12.982 11.7761 12.9553 11.6411Z" fill="#FDC514"/>
<path d="M12.9049 11.1273C12.9035 10.9894 12.8189 10.9378 12.7163 10.9378C12.5804 10.9378 11.9331 11.1273 11.9331 11.1273C11.9331 11.1273 12.5804 11.3168 12.7163 11.3168C12.8183 11.3168 12.9049 11.2652 12.9049 11.1273Z" fill="#FDC514"/>
<path d="M12.9553 10.6133C12.9803 10.4777 12.9069 10.4104 12.8071 10.3903C12.6735 10.3633 12.0024 10.421 12.0024 10.421C12.0024 10.421 12.6007 10.7349 12.734 10.7618C12.8341 10.7819 12.9289 10.7483 12.9553 10.6133Z" fill="#FDC514"/>
<path d="M13.1034 10.1197C13.1539 9.99156 13.0948 9.91101 13.0008 9.87145C12.8752 9.8187 12.2056 9.74274 12.2056 9.74274C12.2056 9.74274 12.7322 10.1687 12.8577 10.2215C12.9518 10.261 13.0515 10.247 13.1034 10.1197Z" fill="#FDC514"/>
<path d="M13.3426 9.66415C13.4165 9.54948 13.3744 9.45803 13.2895 9.4007C13.1763 9.32416 12.5342 9.11719 12.5342 9.11719C12.5342 9.11719 12.9691 9.63921 13.082 9.71575C13.168 9.77308 13.2672 9.77881 13.3426 9.66415Z" fill="#FDC514"/>
<path d="M13.6653 9.26594C13.7602 9.16732 13.7361 9.06957 13.6653 8.99676C13.569 8.89929 12.979 8.56934 12.979 8.56934C12.979 8.56934 13.3047 9.16732 13.4007 9.26479C13.4729 9.33789 13.5704 9.36312 13.6664 9.26479" fill="#FDC514"/>
<path d="M15.5004 8.81189C16.7637 8.81189 17.7877 9.84991 17.7877 11.1302C17.7877 12.4104 16.764 13.4481 15.5004 13.4481C14.2368 13.4481 13.2134 12.4107 13.2134 11.1293C13.2134 9.8479 14.2391 8.81189 15.5004 8.81189Z" fill="#FDC514"/>
<path d="M15.5033 8.49431C15.6392 8.4923 15.6899 8.4063 15.6899 8.30281C15.6899 8.16521 15.5033 7.50903 15.5033 7.50903C15.5033 7.50903 15.3164 8.16521 15.3164 8.30281C15.3164 8.4063 15.3671 8.49431 15.5033 8.49431Z" fill="#FDC514"/>
<path d="M16.0093 13.7094C15.8763 13.7381 15.8427 13.8324 15.8628 13.9338C15.8894 14.0686 16.199 14.6755 16.199 14.6755C16.199 14.6755 16.2564 13.9949 16.2294 13.8599C16.2094 13.7587 16.1434 13.6824 16.0093 13.7094Z" fill="#FDC514"/>
<path d="M15.5033 13.7604C15.3671 13.7624 15.3164 13.8484 15.3164 13.9516C15.3164 14.0895 15.5033 14.7454 15.5033 14.7454C15.5033 14.7454 15.6899 14.0895 15.6899 13.9516C15.6899 13.8484 15.6392 13.7604 15.5033 13.7604Z" fill="#FDC514"/>
<path d="M14.9962 13.7093C14.8626 13.6843 14.7955 13.7586 14.776 13.8598C14.7496 13.9948 14.8067 14.6753 14.8067 14.6753C14.8067 14.6753 15.116 14.0685 15.1429 13.9337C15.1627 13.8322 15.1295 13.7359 14.9962 13.7093Z" fill="#FDC514"/>
<path d="M14.509 13.56C14.3826 13.5089 14.3032 13.5686 14.2642 13.664C14.2123 13.7913 14.1372 14.4701 14.1372 14.4701C14.1372 14.4701 14.5575 13.9366 14.6093 13.8091C14.6486 13.7136 14.6346 13.6127 14.509 13.56Z" fill="#FDC514"/>
<path d="M14.0591 8.93774C14.1712 8.86005 14.1666 8.75972 14.1099 8.67372C14.0345 8.55905 13.519 8.11902 13.519 8.11902C13.519 8.11902 13.7237 8.76975 13.7988 8.88413C13.8562 8.97013 13.9462 9.01428 14.0591 8.93774Z" fill="#FDC514"/>
<path d="M14.509 8.69465C14.634 8.64047 14.6486 8.541 14.6093 8.44554C14.5575 8.31797 14.1372 7.78448 14.1372 7.78448C14.1372 7.78448 14.2123 8.46331 14.2642 8.59059C14.3032 8.68576 14.3835 8.74711 14.509 8.69465Z" fill="#FDC514"/>
<path d="M14.9963 8.54472C15.1293 8.51606 15.1628 8.42146 15.143 8.32026C15.1161 8.18524 14.8068 7.57837 14.8068 7.57837C14.8068 7.57837 14.7495 8.25892 14.7761 8.39422C14.7962 8.4957 14.8621 8.57167 14.9963 8.54472Z" fill="#FDC514"/>
<path d="M15.4241 15.1753L15.3846 15.2556L15.3407 15.3576L15.3141 15.4066L15.2923 15.4511L15.2748 15.4863L15.253 15.5087L15.2003 15.4643L15.1432 15.4244L15.0819 15.3932L15.0162 15.3665L14.946 15.3487L14.8758 15.331L14.8058 15.3175L14.731 15.3086L14.5773 15.2951L14.424 15.2908L14.2752 15.2822L14.1347 15.2644L14.0559 15.251L13.9814 15.2332L13.9418 15.2197L13.9022 15.2065L13.8673 15.1888L13.8366 15.171L13.7881 15.1397L13.74 15.1039L13.6872 15.0644L13.6391 15.0196L13.5385 14.9219L13.4375 14.8241L13.3366 14.7307L13.2446 14.6464L13.2008 14.6151L13.1569 14.5842L13.1173 14.5664L13.0778 14.5532L13.0032 14.5355L12.9373 14.5131L12.8717 14.491L12.806 14.4598L12.7487 14.4331L12.6919 14.3973L12.6392 14.362L12.591 14.3265L12.5383 14.2863L12.4947 14.2462L12.4508 14.2018L12.407 14.1576L12.3236 14.0642L12.2444 13.9661L12.0868 13.7574L11.9202 13.5442L11.8236 13.4421L11.723 13.3398L11.6659 13.2864L11.6089 13.2371L11.5473 13.1933L11.4816 13.144L11.4684 13.1486L11.4552 13.1617L11.4421 13.1795L11.4335 13.2019L11.4203 13.242L11.416 13.2598L11.3853 13.2466L11.3589 13.2328L11.3282 13.2197L11.3019 13.2108H11.2448L11.2142 13.2197L11.1835 13.2328L11.2142 13.273L11.2534 13.3263L11.293 13.3888L11.3282 13.4553L11.3632 13.5264L11.3896 13.5929L11.3982 13.6287L11.4071 13.6554L11.4117 13.6863V13.713H11.3632H11.1749L11.2096 13.7663L11.2491 13.8199L11.293 13.873L11.3412 13.922L11.3896 13.971L11.4378 14.0197L11.4859 14.0599L11.5298 14.0908L11.4816 14.0954L11.416 14.0997L11.35 14.1083L11.3019 14.1129L11.3412 14.1487L11.3896 14.1843L11.4421 14.2238L11.4994 14.2643L11.5562 14.2995L11.6132 14.3308L11.6659 14.3485L11.7141 14.362L11.7359 14.3663L11.7534 14.3709L11.7669 14.3755L11.7755 14.3844L11.7797 14.3884V14.4065L11.7755 14.4153L11.7669 14.4423L11.7623 14.4687L11.758 14.4864V14.4999L11.7623 14.522L11.7669 14.5398L11.7755 14.5486L11.7886 14.5575L11.8061 14.5664L11.8282 14.5707L11.85 14.5796L11.8721 14.5885L11.8938 14.5977L11.9113 14.6108L11.9159 14.6151V14.6243L11.9113 14.6289L11.8938 14.6421L11.8764 14.6553L11.8586 14.6728L11.8411 14.6954V14.7132L11.8368 14.7307L11.8411 14.753L11.8454 14.7797L11.9202 14.8066L11.9991 14.8333L12.034 14.8419L12.069 14.8554L12.0954 14.8686L12.1174 14.882L11.9727 14.9978L12.0122 15.0331L12.0604 15.0598L12.1217 15.091L12.1831 15.1131L12.2536 15.1354L12.3193 15.1486L12.3763 15.1618H12.4288L12.3806 15.1977L12.3193 15.2375L12.2536 15.273L12.2052 15.3086L12.2493 15.3398L12.3107 15.3711L12.3806 15.4066L12.464 15.4465L12.657 15.5308L12.8674 15.6153L13.0864 15.6953L13.3017 15.7664L13.398 15.7976L13.4857 15.82L13.5645 15.8418L13.6348 15.8553L13.4946 15.8418L13.363 15.8243L13.2311 15.8022L13.1085 15.775L12.9858 15.7397L12.8674 15.7045L12.7533 15.6641L12.6438 15.6199L12.4288 15.5308L12.2272 15.4419L12.1306 15.4018L12.034 15.3619L11.942 15.3264L11.85 15.2908L11.8721 15.2776L11.8981 15.2685L11.9334 15.2556L11.9727 15.2464L12.0561 15.2197L12.1306 15.1931L11.9991 15.171L11.8193 15.1354L11.7316 15.1088L11.6571 15.0864L11.6264 15.0732L11.6 15.0598L11.5782 15.0463L11.565 15.0331V15.0285L11.5693 15.0242L11.5825 15.0196L11.5957 15.0107L11.6307 14.9978L11.6791 14.9841L11.7843 14.9528L11.8721 14.9219L11.6571 14.882L11.4905 14.8554L11.4292 14.8419L11.3807 14.8241L11.3632 14.8155L11.3457 14.8021L11.3326 14.7932L11.324 14.7797L11.3369 14.7708L11.3764 14.7619L11.4335 14.753L11.4994 14.7398L11.5693 14.7307L11.6307 14.7132L11.6616 14.704L11.6877 14.6954L11.7055 14.6819L11.723 14.6685L11.6877 14.6553L11.6525 14.6421L11.6089 14.6332L11.565 14.6243L11.4641 14.6108L11.3632 14.5977L11.3105 14.5842L11.2626 14.5753L11.2142 14.5575L11.1657 14.5398L11.1219 14.5177L11.0826 14.4864L11.0473 14.4552L11.0209 14.4153L11.0301 14.4108L11.0473 14.4065H11.0694L11.1044 14.4108L11.1835 14.4153L11.2712 14.4196L11.3675 14.4288H11.4905L11.5255 14.4239L11.5519 14.4153L11.5693 14.4065L11.4641 14.362L11.324 14.2995L11.2448 14.26L11.1614 14.2198L11.0783 14.1751L10.9949 14.1307L10.9157 14.0819L10.8415 14.0286L10.7713 13.9753L10.7096 13.922L10.6835 13.8907L10.6572 13.8641L10.6397 13.8377L10.6222 13.8065L10.6044 13.7798L10.5958 13.7486L10.5915 13.7219L10.5872 13.6906H10.6179L10.6529 13.6952L10.6878 13.7087L10.7231 13.7219L10.793 13.7663L10.8722 13.811L10.9071 13.8331L10.9467 13.8552L10.986 13.873L11.0209 13.8864L11.0605 13.8956L11.0958 13.8999H11.1353L11.1703 13.8864L11.0648 13.8065L10.9467 13.7041L10.8105 13.5843L10.6749 13.451L10.5388 13.3085L10.4115 13.1666L10.3544 13.0909L10.2977 13.0198L10.2495 12.9488L10.2054 12.882L10.1968 12.8639V12.8329L10.2011 12.8198L10.2054 12.8063L10.2186 12.7974L10.2317 12.7842L10.2449 12.7753L10.2624 12.771L10.2799 12.7664H10.3152L10.3372 12.771L10.3544 12.7753L10.3722 12.7885L10.3854 12.802L10.4642 12.882L10.5563 12.9751L10.6529 13.0775L10.7581 13.1795L10.8633 13.273L10.9685 13.3618L11.0209 13.3977L11.0694 13.4286L11.1219 13.4553L11.1703 13.4731L11.1353 13.451L11.0958 13.4109L11.043 13.3578L10.986 13.2907L10.859 13.1354L10.7188 12.9528L10.6483 12.8553L10.5826 12.7575L10.5213 12.6598L10.4599 12.5663L10.4072 12.4775L10.3633 12.3975L10.3327 12.3221L10.3063 12.2599L10.302 12.2375V12.202L10.3063 12.1885L10.3152 12.1753L10.3238 12.1619L10.3327 12.153L10.3458 12.1444L10.3765 12.1352L10.4029 12.1263H10.4642L10.482 12.1309L10.4949 12.1352L10.5124 12.1444L10.5259 12.1576L10.5608 12.1885L10.5958 12.2329L10.6749 12.3353L10.7581 12.4643L10.8544 12.6019L10.9553 12.7441L11.008 12.8109L11.0605 12.8777L11.1178 12.9353L11.1792 12.9886L11.1044 12.8418L11.0209 12.673L10.9774 12.5798L10.9378 12.4864L10.8982 12.3886L10.8633 12.2909L10.8326 12.1885L10.8019 12.0908L10.7801 11.993L10.7624 11.8953L10.7535 11.8018L10.7492 11.7129L10.7535 11.6685L10.7581 11.6287L10.7624 11.5885L10.7713 11.5487L10.7801 11.5352L10.7844 11.522L10.7976 11.5085L10.8062 11.4997L10.8369 11.4862L10.8679 11.4773H10.8982L10.9249 11.4819L10.9378 11.4862L10.9467 11.4908L10.951 11.4997L10.9553 11.5131L10.9992 11.6553L11.0387 11.8064L11.0783 11.9618L11.1178 12.1131L11.1571 12.2642L11.2096 12.4064L11.2359 12.4729L11.2669 12.5397L11.3019 12.6019L11.3412 12.6641L11.3151 12.5354L11.2973 12.4196L11.2798 12.3132L11.2712 12.2152L11.2626 12.1309L11.258 12.0555L11.2626 11.993L11.2669 11.9397L11.2755 11.8953L11.2887 11.8597L11.2973 11.8462L11.3062 11.833L11.3151 11.8242L11.3282 11.8153L11.3412 11.8107H11.3807L11.416 11.8242L11.4509 11.8419L11.4816 11.9841L11.5123 12.122L11.5473 12.2507L11.5868 12.3754L11.6307 12.4998L11.6791 12.6242L11.7316 12.753L11.7929 12.882L11.8368 12.9665L11.8807 13.0508L11.9288 13.1354L11.9773 13.2197L12.0297 13.2999L12.0825 13.3799L12.1392 13.4596L12.1966 13.5399L12.3018 13.6732L12.4113 13.7973L12.5254 13.922L12.6438 14.0375L12.7665 14.153L12.8937 14.26L13.025 14.362L13.1612 14.4598L13.2532 14.522L13.3498 14.5796L13.4507 14.6375L13.5471 14.6908L13.7007 14.7665L13.8498 14.8373L14.0074 14.8998L14.1654 14.9577L14.3145 15.0064L14.4678 15.0463L14.6258 15.0821L14.7791 15.1131L14.9417 15.1354L15.0994 15.1529L15.2619 15.1667L15.4241 15.1753Z" fill="#FDC514"/>
<path d="M15.8235 16.5263L15.8981 16.5352L15.9333 16.5487L15.9419 16.553V16.5576H15.9333L15.9242 16.5619L15.8542 16.5754H15.7969L15.6126 16.5619L15.389 16.5576L15.1479 16.553L14.8979 16.5576L14.7795 16.5619L14.6608 16.5708L14.5556 16.5797L14.455 16.5888L14.3716 16.602L14.297 16.6198L14.271 16.6284L14.2443 16.6376L14.2225 16.6465L14.205 16.6596L14.2139 16.6155L14.2314 16.5708L14.2007 16.5797L14.17 16.5888L14.1437 16.602L14.1173 16.6155L14.0952 16.6284L14.0777 16.6465L14.0648 16.6688L14.0605 16.6909L14.0474 16.6596L14.0382 16.6333L14.0336 16.6023L14.0293 16.5757L14.0336 16.5533L14.0382 16.5266L14.0425 16.5046L14.0557 16.4822L14.0646 16.4644L14.082 16.4424L14.0995 16.4246L14.117 16.4068L14.1655 16.3756L14.2179 16.3446C14.2468 16.3617 14.2777 16.3751 14.3099 16.3844C14.3409 16.387 14.3721 16.384 14.402 16.3756C14.413 16.3863 14.4261 16.3948 14.4405 16.4005C14.4549 16.4062 14.4702 16.409 14.4856 16.4087C14.5011 16.4085 14.5163 16.4052 14.5305 16.3991C14.5447 16.3929 14.5575 16.3841 14.5682 16.373C14.5703 16.371 14.5722 16.3689 14.574 16.3667C14.5837 16.3565 14.5912 16.3444 14.5958 16.3311C14.6026 16.3019 14.6026 16.2715 14.5958 16.2423L14.6485 16.2377L14.7098 16.2291L14.7758 16.211L14.8457 16.1935L14.916 16.1798L14.9816 16.1623L15.0432 16.1534L15.096 16.1488L15.0739 16.1669L15.0212 16.2067L14.9598 16.2554L14.916 16.2867L14.9733 16.3002L15.0214 16.3091L14.9865 16.3489L14.9515 16.3887L14.9162 16.4289L14.8902 16.4644L14.9251 16.4779L14.9601 16.4868L14.9994 16.4954H15.0785L15.1181 16.4868L15.1576 16.4779L15.188 16.4598L15.2235 16.4779L15.2585 16.4914L15.2932 16.5003L15.3288 16.5091L15.4076 16.5177L15.491 16.5266H15.8241" fill="#FDC514"/>
<path d="M14.4766 16.2733L14.49 16.2776L14.5029 16.2821L14.5072 16.2956L14.5115 16.3088L14.5072 16.3223L14.5029 16.3355L14.49 16.3443H14.4591L14.4505 16.3355L14.4416 16.3223L14.437 16.3088L14.4416 16.2956L14.4505 16.2821L14.4591 16.2776L14.4766 16.2733Z" fill="#FDC514"/>
<path d="M14.4722 16.2911L14.4811 16.2957L14.4856 16.3046L14.4811 16.3134L14.4722 16.3177L14.4636 16.3134L14.459 16.3046L14.4636 16.2957L14.4722 16.2911Z" fill="#FDC514"/>
<path d="M14.4758 16.3522C14.4678 16.3523 14.4599 16.35 14.4531 16.3456C14.4464 16.3412 14.4411 16.335 14.4379 16.3276C14.4347 16.3202 14.4338 16.312 14.4352 16.3041C14.4367 16.2962 14.4405 16.2889 14.4461 16.2831C14.4517 16.2773 14.4589 16.2733 14.4668 16.2717C14.4746 16.27 14.4828 16.2707 14.4903 16.2736C14.4978 16.2766 14.5042 16.2817 14.5088 16.2884C14.5134 16.295 14.5159 16.3028 14.516 16.3109C14.5161 16.3162 14.5151 16.3214 14.5131 16.3263C14.5112 16.3312 14.5083 16.3356 14.5046 16.3394C14.501 16.3432 14.4966 16.3462 14.4917 16.3483C14.4869 16.3504 14.4817 16.3515 14.4764 16.3516" fill="#FDC514"/>
<path d="M17.742 16.744L17.7116 16.7578L17.6809 16.7621L17.6543 16.7667L17.6328 16.7621L17.6107 16.7578L17.5886 16.7489L17.5711 16.74L17.5494 16.7265L17.5144 16.6999L17.4794 16.6732L17.4616 16.6597L17.4398 16.6508L17.4221 16.6468H17.4003L17.3607 16.7311L17.3083 16.8375L17.2905 16.8644L17.273 16.8865L17.2555 16.9L17.238 16.9131L17.216 16.922H17.1939L17.1724 16.9131L17.1457 16.9L17.1371 16.8865L17.1282 16.8733L17.1196 16.8555L17.1108 16.8332L17.1022 16.7933L17.0979 16.7667L17.0712 16.789L17.0448 16.8197L17.023 16.8555L16.9969 16.8954L16.966 16.9355L16.9353 16.9665L16.9178 16.9842L16.896 16.9977L16.874 17.0063L16.8479 17.0155H16.8344L16.8123 17.0201L16.7908 17.0155L16.7731 17.0063L16.7206 16.9441L16.6633 16.8822L16.6237 16.9441L16.5798 16.9977L16.5581 17.0201L16.536 17.0421L16.5139 17.0596L16.4924 17.0734L16.4749 17.082L16.4529 17.0866H16.4308L16.4133 17.082L16.3958 17.0734L16.3826 17.0596L16.3651 17.0376L16.3562 17.0109L16.3474 16.9842L16.3299 16.9398L16.3256 16.9174L16.317 16.9L16.3081 16.8908H16.2995L16.1808 17.0866L16.1633 17.1044L16.1326 17.1175L16.0974 17.1267L16.0624 17.1353H16.0231L15.9922 17.1267L15.9836 17.1221L15.9701 17.1087L15.9661 17.0998V17.082L15.9836 16.8865L15.9701 16.8908L15.9526 16.9L15.9351 16.9086L15.9179 16.9266L15.8824 16.9665L15.8437 17.0109L15.8041 17.0596L15.756 17.0998L15.7339 17.1175L15.7118 17.1353L15.6857 17.1488L15.6637 17.1534L15.633 17.1577L15.6112 17.1534L15.6023 17.1488L15.5934 17.1399L15.5891 17.1267V17.1132L15.5934 17.0559L15.6023 16.9986L15.6066 16.9673L15.6023 16.9407L15.5977 16.914L15.5805 16.883L15.5542 16.9229L15.51 16.9802L15.4578 17.0376L15.4005 17.0949L15.3695 17.117L15.3389 17.1393L15.3128 17.1482L15.2907 17.1571L15.2818 17.1528H15.2704L15.2612 17.1439L15.2569 17.1393L15.2483 17.1261L15.244 17.1127V17.0949L15.2394 17.0728L15.244 16.904L15.1342 16.9794L15.0015 17.0634L14.9708 17.0768L14.9358 17.0946L14.9051 17.1035L14.8699 17.1124L14.8404 17.1207H14.8088L14.7779 17.1161L14.7515 17.1072L14.7647 17.072L14.7779 17.0407L14.7908 17.0095L14.8088 16.9828L14.8263 16.9564L14.8438 16.9295L14.8656 16.9071L14.8874 16.8851L14.9358 16.8495L14.9931 16.814L15.0505 16.7876L15.1164 16.7652L15.1823 16.7475L15.2566 16.734L15.3314 16.7205L15.4057 16.7119L15.5679 16.703L15.7348 16.6984H16.0673L16.1504 16.6938L16.2293 16.6895L16.3084 16.685L16.3829 16.6764L16.4572 16.6629L16.5231 16.6494L16.589 16.6334L16.6504 16.607L16.7077 16.5803L16.7559 16.5445L16.804 16.5092L16.8436 16.4599L16.7997 16.3711L16.8347 16.3668L16.87 16.3579L16.9049 16.3404L16.9356 16.3177L16.9491 16.3091L16.962 16.2954L16.9709 16.2779L16.9795 16.2644L16.9838 16.2469V16.2157L16.9752 16.1979L17.0497 16.1844L17.1285 16.1758L17.2119 16.1713H17.2979L17.4783 16.1799L17.6623 16.1936L17.8509 16.2157L18.0347 16.2335L18.2147 16.2515L18.3813 16.2601V16.3223L18.377 16.349L18.3684 16.3756L18.3595 16.4023L18.3506 16.4247L18.3377 16.4422L18.3202 16.4645L18.2892 16.4955L18.25 16.5224L18.2104 16.5402L18.1665 16.5491L18.1184 16.558L18.0699 16.5534L18.0261 16.5491L17.9779 16.5356L17.9341 16.5135L17.8902 16.4915L17.8552 16.4599L17.8217 16.4244V16.4998L17.8085 16.5978L17.7999 16.6468L17.7867 16.691L17.7778 16.7088L17.7646 16.7219L17.756 16.7354L17.742 16.744ZM14.216 16.3263L14.3169 16.3708L14.3433 16.3487L14.3782 16.322L14.4175 16.3L14.4528 16.2776L14.5841 16.2243L14.6987 16.171L14.7561 16.1489L14.8045 16.1219L14.8527 16.0953L14.8922 16.0686L14.9929 16.0021L15.0938 15.9353L15.1904 15.8731L15.2781 15.8109L15.3437 15.7573L15.3965 15.7089L15.4538 15.6555L15.5152 15.5982L15.537 15.5758L15.5633 15.5581L15.594 15.5403L15.6293 15.5228L15.7035 15.4873L15.778 15.4606L15.8792 15.4337L15.9885 15.4073L16.1031 15.3846L16.2304 15.3626L16.384 15.3451L16.5374 15.3227L16.6954 15.3049L16.849 15.2783L16.9012 15.2694L16.9496 15.2559L17.0024 15.2427L17.0549 15.2293L17.1076 15.1628L17.1907 15.0693L17.2481 15.012L17.3137 14.9589L17.3882 14.9016L17.476 14.8443L17.6073 14.7643L17.7477 14.6932L17.8911 14.6178L18.0312 14.551L18.1628 14.4834L18.2855 14.4214L18.3867 14.3681L18.4658 14.3145L18.4873 14.2477L18.518 14.1812L18.5576 14.1144L18.6057 14.0479L18.6582 13.9768L18.7244 13.9057L18.7943 13.8257L18.8821 13.7397L18.9609 13.6687L19.0443 13.5976L19.0882 13.5666L19.132 13.5354L19.1805 13.5087L19.2286 13.482L19.2768 13.4597L19.3253 13.4419L19.3774 13.429L19.4259 13.4152L19.4786 13.4109L19.5268 13.4064L19.5795 13.4109L19.6277 13.4198L19.6234 13.4731L19.6099 13.5265L19.5924 13.5798L19.5704 13.6371L19.54 13.6945L19.5004 13.7518L19.4522 13.814L19.3949 13.8765L19.4388 13.8716L19.4783 13.8627L19.509 13.8538L19.5397 13.8407L19.566 13.8315L19.5967 13.8229L19.636 13.8186L19.6799 13.814L19.6844 13.8452V13.8765L19.6799 13.9074L19.6713 13.9341L19.6581 13.9608L19.6406 13.9874L19.6231 14.0095L19.601 14.0319L19.509 14.1204L19.4167 14.2047L19.4694 14.2096L19.5268 14.2274L19.5841 14.2449L19.6277 14.254L19.5749 14.2939L19.5136 14.334L19.4522 14.3739L19.382 14.4143L19.3124 14.4547L19.2421 14.4994L19.1722 14.5481L19.1062 14.6015L19.1369 14.6061L19.1765 14.6238L19.194 14.6281L19.2114 14.637L19.2246 14.6416L19.2378 14.637L19.1501 14.6857L19.0403 14.7414L18.9878 14.7677L18.9437 14.7947L18.9219 14.8079L18.9087 14.8211L18.8998 14.8345L18.8912 14.848L18.8955 14.8658L18.9044 14.879L18.9219 14.8924L18.9351 14.9059L18.9308 14.9237L18.9219 14.9366L18.9044 14.9503L18.8869 14.9635L18.8474 14.9859L18.7946 15.008L18.7422 15.0254L18.694 15.0435L18.6585 15.0613L18.6324 15.0748L18.7201 15.1636L18.6894 15.1943L18.6585 15.2167L18.6324 15.2301L18.6014 15.2436L18.5404 15.2522H18.4569L18.4661 15.2923L18.4787 15.3325L18.4876 15.3769L18.4962 15.4213L18.422 15.4787L18.3299 15.544L18.229 15.6105L18.1144 15.677L18.0484 15.7126L17.9834 15.7447L17.9131 15.7714L17.8386 15.798L17.7595 15.8247L17.6763 15.8424L17.5886 15.8602L17.4969 15.8734L17.6589 15.878H17.799L17.9306 15.8645L18.049 15.8513L18.1588 15.829L18.2554 15.8026L18.3517 15.7668L18.444 15.7312L18.5667 15.6739L18.6851 15.6074L18.7998 15.5363L18.9179 15.4652L18.8474 15.4294L18.7771 15.4073L18.7422 15.3938L18.7069 15.376L18.6674 15.3583L18.6281 15.3362L18.663 15.3075L18.7026 15.29L18.7508 15.2723L18.8035 15.2591L18.9087 15.237L19.0182 15.2232L19.1148 15.2101L19.2026 15.2012L19.2375 15.192L19.2685 15.1834L19.286 15.1745L19.2989 15.1613L19.2946 15.1567L19.286 15.1481L19.2725 15.1436L19.255 15.1344L19.2069 15.1255L19.1455 15.1166L19.083 15.114L19.0214 15.1051L18.9689 15.092L18.9339 15.0785L19.0523 15.0518L19.1707 15.0249L19.2759 15.0028L19.3637 14.981L19.4382 14.9587L19.5038 14.9317L19.5348 14.9185L19.5566 14.9053L19.5787 14.8919L19.5962 14.8741L19.5916 14.8695L19.583 14.8606L19.5655 14.8563L19.5434 14.8517L19.4861 14.8474H19.4204L19.3502 14.8428L19.2845 14.8385L19.2272 14.8294L19.192 14.8205L19.2226 14.8073L19.2533 14.7941L19.3585 14.7629L19.4508 14.7362L19.5342 14.7141L19.6131 14.6872L19.6962 14.6605L19.7796 14.6267L19.8189 14.6043L19.8542 14.582L19.8673 14.5688L19.8805 14.551L19.8937 14.5378L19.898 14.5244L19.8937 14.5112L19.8805 14.5023L19.8673 14.4977H19.7446L19.6873 14.5023H19.6082L19.5864 14.4977L19.5686 14.4885L19.5514 14.4799L19.7269 14.3653L19.8891 14.2583L20.0325 14.1652L20.1597 14.0763L20.2125 14.0319L20.2606 13.9874L20.3002 13.943L20.3352 13.8986L20.3613 13.8498L20.3833 13.8008L20.3968 13.7475V13.6902H20.3659L20.3352 13.6945L20.3002 13.7079L20.2649 13.7214L20.195 13.7658L20.1202 13.8103L20.0809 13.8326L20.0456 13.8547L20.0061 13.8725L19.9665 13.8857L19.9318 13.8945L19.8966 13.8991H19.857L19.822 13.8857L19.9273 13.806L20.0456 13.7033L20.1815 13.5835L20.3177 13.4502L20.4536 13.3069L20.5806 13.1635L20.6379 13.0879L20.6952 13.0168L20.7434 12.9457L20.7873 12.8789L20.7964 12.8611L20.8004 12.8479L20.7964 12.8302L20.7918 12.8167L20.7873 12.8035L20.7744 12.792L20.7612 12.7788L20.748 12.7743L20.7305 12.7651L20.717 12.7634H20.6818L20.6643 12.7677L20.6422 12.7722L20.6293 12.7857L20.6118 12.7989L20.5313 12.878L20.4392 12.9715L20.3426 13.0738L20.2371 13.1759L20.1319 13.269L20.0267 13.3582L19.9743 13.394L19.9261 13.425L19.8736 13.4519L19.8298 13.474L19.8602 13.4473L19.8997 13.4072L19.9525 13.3542L20.0098 13.2877L20.1371 13.1317L20.2773 12.9497L20.3475 12.8517L20.4132 12.7539L20.4791 12.6607L20.5364 12.5627L20.5892 12.4741L20.633 12.3938L20.668 12.3185L20.6901 12.2562L20.6944 12.2339V12.1983L20.6901 12.1852L20.6812 12.1717L20.6726 12.1585L20.6637 12.1496L20.6505 12.145L20.6241 12.1318L20.5935 12.1229H20.5321L20.5146 12.1275L20.5014 12.1318L20.484 12.1404L20.4705 12.1539L20.4355 12.1852L20.4017 12.2296L20.3226 12.3316L20.2389 12.4606L20.1471 12.5985L20.0462 12.7419L19.9889 12.8087L19.9364 12.8752L19.8791 12.9325L19.8175 12.9855L19.8966 12.839L19.9754 12.6702L20.0193 12.5767L20.0588 12.4833L20.0981 12.3855L20.1331 12.2878L20.164 12.1857L20.1947 12.0877L20.2168 11.9902L20.2343 11.8922L20.2429 11.799L20.2475 11.7101L20.2429 11.6657L20.2383 11.6256L20.2343 11.5857L20.2254 11.5456L20.2208 11.5324L20.2122 11.5189L20.1993 11.5058L20.1904 11.4966L20.1597 11.4834L20.1291 11.4748H20.0981L20.072 11.4791L20.0631 11.4834L20.0499 11.488L20.0456 11.4966L20.0413 11.5101L19.9975 11.6568L19.9579 11.8033L19.9184 11.959L19.8791 12.11L19.8395 12.2611L19.7871 12.4045L19.7595 12.4767L19.7292 12.5389L19.6939 12.6054L19.6543 12.6627L19.6807 12.5337L19.6982 12.4191L19.7157 12.3124L19.7246 12.2147L19.7335 12.1304L19.7378 12.0547L19.7335 11.9925L19.7292 11.9392L19.7203 11.8945L19.7071 11.8592L19.6982 11.8457L19.6896 11.8323L19.6807 11.8234L19.6675 11.8191L19.6543 11.8148L19.6414 11.8102H19.6277L19.6148 11.8148L19.5795 11.8234L19.5445 11.8414L19.5139 11.9848L19.4829 12.1224L19.4479 12.2514L19.4087 12.3758L19.3648 12.5002L19.3167 12.62L19.2639 12.749L19.2026 12.878L19.1587 12.9623L19.1148 13.0483L19.0664 13.1343L19.0182 13.2186L18.9658 13.2989L18.913 13.3788L18.8557 13.4588L18.7984 13.5388L18.6932 13.6721L18.5834 13.7968L18.4687 13.9212L18.3503 14.0359L18.2276 14.1505L18.1018 14.254L17.9702 14.3567L17.8346 14.4541L17.742 14.5163L17.6457 14.5785L17.5491 14.6359L17.4527 14.6932L17.2991 14.764L17.1457 14.8354L16.9881 14.8927L16.8298 14.9501L16.6985 14.9902L16.5669 15.0303L16.4311 15.0616L16.2952 15.0928L16.159 15.114L16.0185 15.1318L15.8824 15.1499L15.7422 15.1587L15.729 15.163L15.7161 15.1673L15.6897 15.1808L15.6588 15.2032L15.6144 15.2465L15.557 15.2998L15.4882 15.372L15.4048 15.4655L15.326 15.5586L15.2337 15.6587L15.1844 15.7089L15.1362 15.7573L15.0789 15.8023L15.0215 15.8465L14.978 15.8777L14.9338 15.9041L14.8856 15.9264L14.8372 15.9485L14.732 15.9932L14.6268 16.0331L14.5216 16.0729L14.4296 16.1088L14.39 16.1265L14.3507 16.1489L14.3158 16.1667L14.2891 16.1842L14.263 16.2108L14.2409 16.2332L14.2277 16.2552L14.2191 16.2776L14.2148 16.3089V16.3263" fill="#FDC514"/>
<path d="M14.4719 16.3214C14.4676 16.3213 14.4635 16.3196 14.4604 16.3165C14.4574 16.3135 14.4556 16.3094 14.4556 16.3051C14.4555 16.3029 14.4559 16.3007 14.4567 16.2987C14.4575 16.2966 14.4587 16.2948 14.4602 16.2932C14.4618 16.2916 14.4636 16.2904 14.4656 16.2895C14.4676 16.2887 14.4697 16.2882 14.4719 16.2881C14.4741 16.2881 14.4762 16.2886 14.4782 16.2894C14.4801 16.2902 14.4819 16.2914 14.4835 16.2929C14.485 16.2944 14.4862 16.2963 14.487 16.2982C14.4878 16.3002 14.4882 16.3023 14.4882 16.3045C14.4883 16.3066 14.4879 16.3087 14.4871 16.3107C14.4864 16.3126 14.4852 16.3144 14.4838 16.3159C14.4823 16.3174 14.4805 16.3187 14.4786 16.3195C14.4767 16.3203 14.4746 16.3208 14.4725 16.3208" fill="#FDC514"/>
<path d="M14.4719 16.3214C14.4676 16.3213 14.4635 16.3196 14.4604 16.3165C14.4574 16.3135 14.4556 16.3094 14.4556 16.3051C14.4555 16.3029 14.4559 16.3007 14.4567 16.2987C14.4575 16.2966 14.4587 16.2948 14.4602 16.2932C14.4618 16.2916 14.4636 16.2904 14.4656 16.2895C14.4676 16.2887 14.4697 16.2882 14.4719 16.2881C14.4741 16.2881 14.4762 16.2886 14.4782 16.2894C14.4801 16.2902 14.4819 16.2914 14.4835 16.2929C14.485 16.2944 14.4862 16.2963 14.487 16.2982C14.4878 16.3002 14.4882 16.3023 14.4882 16.3045C14.4883 16.3066 14.4879 16.3087 14.4871 16.3107C14.4864 16.3126 14.4852 16.3144 14.4838 16.3159C14.4823 16.3174 14.4805 16.3187 14.4786 16.3195C14.4767 16.3203 14.4746 16.3208 14.4725 16.3208L14.4719 16.3214Z" stroke="#00AEC8" stroke-width="0.38"/>
</g>
<defs>
<clipPath id="clip0_179_869">
<rect width="24" height="24" rx="12" fill="white"/>
</clipPath>
</defs>
</svg>
