<svg width="24" height="24" viewBox="0 0 24 24" fill="none" xmlns="http://www.w3.org/2000/svg">
<g clip-path="url(#clip0_135_125)">
<path d="M17.5 1.917C16.3739 1.93451 15.2724 2.24885 14.3067 2.82827C13.341 3.40769 12.5453 4.23167 12 5.217C11.4546 4.23167 10.6589 3.40769 9.6932 2.82827C8.7275 2.24885 7.62601 1.93451 6.49996 1.917C4.7049 1.99499 3.01366 2.78025 1.79574 4.10123C0.577818 5.42221 -0.0677922 7.17153 -4.17093e-05 8.967C-4.17093e-05 13.514 4.78596 18.48 8.79996 21.847C9.69618 22.6001 10.8293 23.013 12 23.013C13.1706 23.013 14.3037 22.6001 15.2 21.847C19.214 18.48 24 13.514 24 8.967C24.0677 7.17153 23.4221 5.42221 22.2042 4.10123C20.9863 2.78025 19.295 1.99499 17.5 1.917Z" fill="#999999"/>
</g>
<defs>
<clipPath id="clip0_135_125">
<rect width="24" height="24" fill="white"/>
</clipPath>
</defs>
</svg>
