<svg width="40" height="40" viewBox="0 0 40 40" fill="none" xmlns="http://www.w3.org/2000/svg">
<rect width="40" height="40" rx="8" fill="#E6E6E6"/>
<path fill-rule="evenodd" clip-rule="evenodd" d="M20 9.5C24.6915 9.5 28.5 13.3085 28.5 18C28.5 20.443 27.281 22.9575 25.7505 25.069C23.6135 28.018 20.941 30.168 20.941 30.168V30.1685C20.3915 30.6105 19.6085 30.6105 19.059 30.1685V30.168C19.059 30.168 16.3865 28.018 14.2495 25.069C12.719 22.9575 11.5 20.443 11.5 18C11.5 13.3085 15.3085 9.5 20 9.5ZM20 14.5C21.9315 14.5 23.5 16.0685 23.5 18C23.5 19.9315 21.9315 21.5 20 21.5C18.0685 21.5 16.5 19.9315 16.5 18C16.5 16.0685 18.0685 14.5 20 14.5Z" fill="#C91517"/>
</svg>
