<svg width="177" height="40" viewBox="0 0 177 40" fill="none" xmlns="http://www.w3.org/2000/svg">
<g clip-path="url(#clip0_135_80)">
<path d="M60.9188 6.30586H58.392C58.566 5.97389 58.7001 5.52949 58.7954 4.97229C58.8903 4.41521 58.9375 3.71821 58.9375 2.87992V1.80142H60.9188V6.30586ZM63.5992 6.30586H63.0419V0.20138C63.0419 0.114456 63.0139 0.04301 62.9592 -0.012339C62.9032 -0.0673165 62.832 -0.0951767 62.745 -0.0951767H57.1703C57.0917 -0.0951767 57.0221 -0.0673165 56.9632 -0.012339C56.9037 0.04301 56.874 0.114456 56.874 0.20138V2.60739C56.874 3.14478 56.8582 3.64082 56.8264 4.09525C56.7949 4.54943 56.7394 4.94071 56.6607 5.26835C56.5816 5.59685 56.478 5.85156 56.3516 6.03321C56.2257 6.21485 56.0636 6.30586 55.866 6.30586H55.6523C55.5731 6.30586 55.5041 6.33521 55.4451 6.39489C55.3853 6.45396 55.3559 6.52342 55.3559 6.60193V9.56526C55.3559 9.65194 55.3853 9.72314 55.4451 9.77911C55.5041 9.83396 55.5731 9.86182 55.6523 9.86182H57.1939C57.2809 9.86182 57.3522 9.83198 57.4077 9.77304C57.4627 9.71336 57.4907 9.64476 57.4907 9.56526V8.20234H61.7729V9.56526C61.7729 9.64476 61.8 9.71336 61.8555 9.77304C61.9107 9.83198 61.9819 9.86182 62.0693 9.86182H63.5992C63.6865 9.86182 63.7595 9.83198 63.8181 9.77304C63.878 9.71336 63.9073 9.64476 63.9073 9.56526V6.60193C63.9073 6.52342 63.878 6.45396 63.8181 6.39489C63.7595 6.33521 63.6865 6.30586 63.5992 6.30586Z" fill="#A0A0A0"/>
<path d="M75.3291 -0.0951767H73.954C73.8503 -0.0951767 73.7678 -0.0730123 73.7049 -0.029798C73.6411 0.0136639 73.5894 0.0669079 73.5501 0.130058L70.1705 4.97798V0.20138C70.1705 0.114456 70.1425 0.04301 70.087 -0.012339C70.0311 -0.0673165 69.9607 -0.0951767 69.8737 -0.0951767H68.3439C68.2643 -0.0951767 68.1952 -0.0673165 68.1358 -0.012339C68.0768 0.04301 68.0471 0.114456 68.0471 0.20138V7.90578C68.0471 7.98515 68.0746 8.054 68.1301 8.11319C68.1852 8.17287 68.2565 8.20234 68.3439 8.20234H69.719C69.8295 8.20234 69.9152 8.17844 69.9742 8.13102C70.0337 8.08384 70.0826 8.0327 70.1229 7.97723L73.4911 3.30699V7.90578C73.4911 7.99283 73.5209 8.06415 73.5802 8.11963C73.6393 8.1746 73.7123 8.20234 73.7993 8.20234H75.3291C75.4086 8.20234 75.4773 8.1746 75.5371 8.11963C75.5966 8.06415 75.6258 7.99283 75.6258 7.90578V0.20138C75.6258 0.114456 75.5966 0.04301 75.5371 -0.012339C75.4773 -0.0673165 75.4086 -0.0951767 75.3291 -0.0951767Z" fill="#A0A0A0"/>
<path d="M82.5639 1.85492C82.817 1.61433 83.161 1.4931 83.5959 1.4931C83.9595 1.4931 84.2664 1.57025 84.5151 1.72465C84.7643 1.87881 84.9444 2.16485 85.0549 2.58349C85.0943 2.70199 85.1419 2.7831 85.197 2.82656C85.252 2.87051 85.3316 2.89181 85.4339 2.89181H87.0359C87.1071 2.89181 87.1683 2.86841 87.2195 2.82098C87.271 2.77319 87.2924 2.71437 87.2845 2.64317C87.2762 2.20038 87.1801 1.80316 86.9939 1.45212C86.8081 1.10009 86.5489 0.799818 86.2171 0.550686C85.8854 0.302049 85.4972 0.112228 85.0549 -0.0177864C84.6121 -0.14842 84.1296 -0.213799 83.6078 -0.213799C82.8725 -0.213799 82.2357 -0.0891085 81.6984 0.159652C81.16 0.408785 80.7412 0.772453 80.441 1.24992C80.1403 1.72862 79.9741 2.31083 79.9426 2.99842C79.9343 3.33795 79.9312 3.69431 79.9312 4.06541C79.9312 4.43688 79.9343 4.78457 79.9426 5.10887C79.9741 5.81181 80.1385 6.40047 80.4353 6.87459C80.7316 7.3487 81.1468 7.70841 81.6806 7.95333C82.2142 8.19813 82.8563 8.32096 83.6078 8.32096C84.1296 8.32096 84.6121 8.25583 85.0549 8.12508C85.4972 7.99506 85.8854 7.80512 86.2171 7.5566C86.5489 7.30747 86.8081 7.00708 86.9939 6.65505C87.1801 6.30413 87.2762 5.90691 87.2845 5.46412C87.2924 5.39292 87.271 5.3341 87.2195 5.28631C87.1683 5.23888 87.1071 5.21498 87.0359 5.21498H85.4339C85.3316 5.21498 85.2508 5.23715 85.1913 5.28073C85.1319 5.3242 85.0864 5.40518 85.0549 5.52405C84.9518 5.93464 84.7743 6.21882 84.5213 6.37694C84.2678 6.53481 83.9595 6.61431 83.5959 6.61431C83.161 6.61431 82.817 6.49408 82.5639 6.25237C82.3109 6.01154 82.1727 5.61047 82.1487 5.04906C82.125 4.36952 82.125 3.7057 82.1487 3.05823C82.1727 2.49682 82.3109 2.09625 82.5639 1.85492Z" fill="#A0A0A0"/>
<path d="M97.5554 -0.0951767H91.1746C91.0877 -0.0951767 91.0164 -0.0673165 90.9609 -0.012339C90.9059 0.04301 90.8784 0.114456 90.8784 0.20138V1.46921C90.8784 1.54858 90.9059 1.61767 90.9609 1.67735C91.0164 1.73629 91.0877 1.76564 91.1746 1.76564H93.2859V7.90578C93.2859 7.99283 93.3134 8.06415 93.3689 8.11963C93.4239 8.1746 93.4952 8.20234 93.5822 8.20234H95.1479C95.2344 8.20234 95.3057 8.1746 95.3612 8.11963C95.4163 8.06415 95.4443 7.99283 95.4443 7.90578V1.76564H97.5554C97.6419 1.76564 97.7133 1.73629 97.7691 1.67735C97.8238 1.61767 97.8522 1.54858 97.8522 1.46921V0.20138C97.8522 0.114456 97.8238 0.04301 97.7691 -0.012339C97.7133 -0.0673165 97.6419 -0.0951767 97.5554 -0.0951767Z" fill="#A0A0A0"/>
<path d="M106.232 3.4136C106.03 3.5877 105.759 3.67462 105.419 3.67462H104.031V1.55279H105.419C105.814 1.55279 106.099 1.65519 106.273 1.86086C106.447 2.06591 106.534 2.319 106.534 2.61928C106.534 2.97452 106.433 3.23988 106.232 3.4136ZM107.192 0.206828C106.706 0.00549158 106.135 -0.0951767 105.479 -0.0951767H102.158C102.07 -0.0951767 101.999 -0.0673165 101.944 -0.012339C101.888 0.04301 101.861 0.114456 101.861 0.20138V7.90578C101.861 7.99283 101.888 8.06415 101.944 8.11963C101.999 8.1746 102.07 8.20234 102.158 8.20234H103.758C103.846 8.20234 103.919 8.1746 103.978 8.11963C104.038 8.06415 104.067 7.99283 104.067 7.90578V5.3102H105.479C106.135 5.3102 106.706 5.21498 107.192 5.02528C107.678 4.83621 108.058 4.54398 108.331 4.14849C108.603 3.75313 108.74 3.25152 108.74 2.64317C108.74 2.02666 108.603 1.517 108.331 1.11383C108.058 0.711036 107.678 0.408784 107.192 0.206828Z" fill="#A0A0A0"/>
<path d="M120.092 -0.0951767H118.716C118.613 -0.0951767 118.53 -0.0730123 118.467 -0.029798C118.403 0.0136639 118.352 0.0669079 118.312 0.130058L114.932 4.97798V0.20138C114.932 0.114456 114.904 0.04301 114.849 -0.012339C114.793 -0.0673165 114.722 -0.0951767 114.636 -0.0951767H113.106C113.026 -0.0951767 112.957 -0.0673165 112.898 -0.012339C112.839 0.04301 112.809 0.114456 112.809 0.20138V7.90578C112.809 7.98515 112.836 8.054 112.892 8.11319C112.947 8.17287 113.018 8.20234 113.106 8.20234H114.481C114.592 8.20234 114.677 8.17844 114.737 8.13102C114.795 8.08384 114.845 8.0327 114.885 7.97723L118.253 3.30699V7.90578C118.253 7.99283 118.283 8.06415 118.342 8.11963C118.401 8.1746 118.474 8.20234 118.561 8.20234H120.092C120.17 8.20234 120.239 8.1746 120.299 8.11963C120.358 8.06415 120.387 7.99283 120.387 7.90578V0.20138C120.387 0.114456 120.358 0.04301 120.299 -0.012339C120.239 -0.0673165 120.17 -0.0951767 120.092 -0.0951767Z" fill="#A0A0A0"/>
<path d="M129.484 6.12236C129.405 6.28395 129.289 6.41458 129.134 6.51352C128.98 6.61158 128.788 6.66161 128.559 6.66161H127.089V4.59921H128.559C128.899 4.59921 129.158 4.6979 129.336 4.89502C129.514 5.09302 129.602 5.32977 129.602 5.60651C129.602 5.78828 129.563 5.96027 129.484 6.12236ZM130.99 3.78086C130.445 3.33089 129.698 3.10565 128.749 3.10565H127.089V1.69444H130.943C131.03 1.69444 131.103 1.66497 131.162 1.60603C131.222 1.54635 131.251 1.47354 131.251 1.38649V0.20138C131.251 0.114456 131.222 0.04301 131.162 -0.012339C131.103 -0.0673165 131.03 -0.0951767 130.943 -0.0951767H125.262C125.175 -0.0951767 125.103 -0.0673165 125.048 -0.012339C124.993 0.04301 124.966 0.114456 124.966 0.20138V7.90578C124.966 7.99283 124.993 8.06415 125.048 8.11963C125.103 8.1746 125.175 8.20234 125.262 8.20234H128.749C129.247 8.20234 129.686 8.13498 130.066 8.001C130.445 7.86666 130.763 7.68253 131.02 7.44987C131.277 7.21671 131.473 6.94405 131.607 6.63177C131.742 6.31948 131.809 5.98194 131.809 5.61815C131.809 4.84351 131.537 4.23121 130.99 3.78086Z" fill="#A0A0A0"/>
<path d="M142.318 -0.0951767H140.764C140.685 -0.0951767 140.614 -0.0754888 140.55 -0.0357416C140.488 0.00388187 140.44 0.0669079 140.409 0.153956L138.944 3.49755L137.23 0.153956C137.19 0.0752041 137.144 0.0136639 137.093 -0.029798C137.042 -0.0730123 136.973 -0.0951767 136.886 -0.0951767H135.249C135.17 -0.0951767 135.102 -0.0673165 135.047 -0.012339C134.992 0.04301 134.964 0.102445 134.964 0.165966C134.964 0.205218 134.972 0.240632 134.988 0.272578L137.922 5.72476C137.895 5.76798 137.868 5.81812 137.841 5.8554C137.718 6.02119 137.581 6.14576 137.431 6.22848C137.282 6.31131 137.099 6.35304 136.886 6.35304H136.435C136.348 6.35304 136.277 6.3809 136.222 6.43588C136.167 6.49123 136.139 6.56267 136.139 6.6496V7.90578C136.139 7.99283 136.167 8.06415 136.222 8.11963C136.277 8.1746 136.348 8.20234 136.435 8.20234H137.064C137.506 8.20234 137.88 8.16061 138.185 8.0779C138.488 7.99506 138.752 7.85861 138.974 7.66866C139.195 7.47934 139.398 7.2307 139.584 6.92213C139.77 6.61431 139.962 6.23442 140.16 5.7842L142.519 0.367303C142.535 0.335728 142.547 0.300438 142.556 0.26032C142.563 0.221068 142.567 0.185531 142.567 0.153956C142.567 0.0908058 142.544 0.0333518 142.496 -0.0177872C142.449 -0.0695453 142.389 -0.0951767 142.318 -0.0951767Z" fill="#A0A0A0"/>
<path d="M154.049 6.30586H153.491V0.20138C153.491 0.114456 153.463 0.04301 153.408 -0.012339C153.353 -0.0673165 153.281 -0.0951767 153.194 -0.0951767H151.665C151.578 -0.0951767 151.506 -0.0673165 151.451 -0.012339C151.396 0.04301 151.368 0.114456 151.368 0.20138V6.30586H148.439V0.20138C148.439 0.114456 148.411 0.04301 148.355 -0.012339C148.3 -0.0673165 148.229 -0.0951767 148.142 -0.0951767H146.612C146.525 -0.0951767 146.453 -0.0673165 146.398 -0.012339C146.343 0.04301 146.316 0.114456 146.316 0.20138V7.90578C146.316 7.98515 146.343 8.054 146.398 8.11319C146.453 8.17287 146.525 8.20234 146.612 8.20234H152.222V9.56526C152.222 9.65194 152.249 9.72314 152.305 9.77911C152.36 9.83396 152.431 9.86182 152.519 9.86182H154.049C154.135 9.86182 154.208 9.83396 154.268 9.77911C154.327 9.72314 154.357 9.65194 154.357 9.56526V6.60193C154.357 6.52342 154.327 6.45396 154.268 6.39489C154.208 6.33521 154.135 6.30586 154.049 6.30586Z" fill="#A1A1A0"/>
<path d="M165.778 -0.0951767H164.402C164.3 -0.0951767 164.217 -0.0730123 164.154 -0.029798C164.09 0.0136639 164.038 0.0669079 163.999 0.130058L160.619 4.97798V0.20138C160.619 0.114456 160.591 0.04301 160.536 -0.012339C160.48 -0.0673165 160.409 -0.0951767 160.322 -0.0951767H158.792C158.713 -0.0951767 158.644 -0.0673165 158.585 -0.012339C158.526 0.04301 158.496 0.114456 158.496 0.20138V7.90578C158.496 7.98515 158.523 8.054 158.579 8.11319C158.634 8.17287 158.705 8.20234 158.792 8.20234H160.168C160.279 8.20234 160.364 8.17844 160.423 8.13102C160.482 8.08384 160.532 8.0327 160.572 7.97723L163.94 3.30699V7.90578C163.94 7.99283 163.97 8.06415 164.029 8.11963C164.088 8.1746 164.161 8.20234 164.248 8.20234H165.778C165.858 8.20234 165.926 8.1746 165.986 8.11963C166.045 8.06415 166.075 7.99283 166.075 7.90578V0.20138C166.075 0.114456 166.045 0.04301 165.986 -0.012339C165.926 -0.0673165 165.858 -0.0951767 165.778 -0.0951767Z" fill="#A0A0A0"/>
<path d="M175.184 3.68614H173.915C173.567 3.68614 173.306 3.59525 173.132 3.4136C172.958 3.23183 172.871 2.97886 172.871 2.65457C172.871 2.33857 172.962 2.07582 173.144 1.86631C173.326 1.65729 173.583 1.55279 173.915 1.55279H175.184V3.68614ZM177.23 -0.012339C177.171 -0.0673165 177.101 -0.0951767 177.022 -0.0951767H173.868C173.18 -0.0951767 172.598 0.0234459 172.124 0.26032C171.65 0.497441 171.288 0.823344 171.038 1.23828C170.79 1.65345 170.665 2.12559 170.665 2.65457C170.665 3.20793 170.79 3.68614 171.038 4.08881C171.288 4.49235 171.633 4.80426 172.077 5.02528C172.098 5.03593 172.122 5.04312 172.143 5.05339L170.522 7.82307C170.499 7.87049 170.487 7.91408 170.487 7.95333C170.487 8.01636 170.511 8.07394 170.559 8.12507C170.606 8.17683 170.665 8.20234 170.737 8.20234H172.302C172.444 8.20234 172.551 8.16866 172.622 8.1018C172.693 8.03431 172.753 7.96126 172.8 7.88189L174.176 5.35738H175.184V7.90578C175.184 7.99283 175.214 8.06415 175.274 8.11963C175.332 8.1746 175.402 8.20234 175.481 8.20234H177.022C177.101 8.20234 177.171 8.1746 177.23 8.11963C177.289 8.06415 177.319 7.99283 177.319 7.90578V0.20138C177.319 0.114456 177.289 0.04301 177.23 -0.012339Z" fill="#A0A0A0"/>
<path d="M18.944 16.2427C18.672 15.9718 18.3254 15.836 17.9033 15.836H1.76669C1.34407 15.836 0.997516 15.9718 0.72543 16.2427C0.454582 16.5142 0.318787 16.8607 0.318787 17.2827C0.318787 17.7049 0.454582 18.0514 0.72543 18.3227C0.997516 18.5943 1.34407 18.7295 1.76669 18.7295H8.28128V37.8107C8.28128 38.253 8.43232 38.6242 8.73377 38.9257C9.03547 39.2269 9.40767 39.3779 9.8495 39.3779C10.2917 39.3779 10.6643 39.2269 10.9662 38.9257C11.2675 38.6242 11.4181 38.253 11.4181 37.8107V18.7295H17.9033C18.3254 18.7295 18.672 18.5943 18.944 18.3227C19.2154 18.0514 19.3507 17.7049 19.3507 17.2827C19.3507 16.8607 19.2154 16.5142 18.944 16.2427Z" fill="black"/>
<path d="M56.8366 39.3779C56.3937 39.3779 56.0223 39.2269 55.7206 38.9257C55.419 38.6242 55.2682 38.253 55.2682 37.8107V17.4033C55.2682 16.9414 55.419 16.5642 55.7206 16.2729C56.0223 15.982 56.3937 15.836 56.8366 15.836H72.8827C73.3451 15.836 73.7224 15.982 74.0139 16.2729C74.305 16.5642 74.4511 16.9414 74.4511 17.4033V37.8107C74.4511 38.253 74.305 38.6242 74.0139 38.9257C73.7224 39.2269 73.3451 39.3779 72.8827 39.3779C72.4408 39.3779 72.0684 39.2269 71.7669 38.9257C71.4652 38.6242 71.3144 38.253 71.3144 37.8107V18.6088H58.4053V37.8107C58.4053 38.253 58.2588 38.6242 57.9681 38.9257C57.6762 39.2269 57.299 39.3779 56.8366 39.3779Z" fill="black"/>
<path d="M111.101 39.3779C110.658 39.3779 110.287 39.2269 109.985 38.9257C109.684 38.6242 109.532 38.253 109.532 37.8107V17.4033C109.532 16.9414 109.684 16.5642 109.985 16.2729C110.287 15.982 110.658 15.836 111.101 15.836H124.734C125.197 15.836 125.569 15.9718 125.85 16.2427C126.132 16.5142 126.273 16.8715 126.273 17.3134C126.273 17.7349 126.132 18.077 125.85 18.338C125.569 18.599 125.197 18.7295 124.734 18.7295H112.669V26.0549H121.326C121.788 26.0549 122.16 26.19 122.442 26.4613C122.723 26.7326 122.864 27.0796 122.864 27.5016C122.864 27.9239 122.723 28.2701 122.442 28.541C122.16 28.8126 121.788 28.9486 121.326 28.9486H112.669V36.4843H124.734C125.197 36.4843 125.569 36.6148 125.85 36.876C126.132 37.1372 126.273 37.4787 126.273 37.9006C126.273 38.3434 126.132 38.6996 125.85 38.9709C125.569 39.2422 125.197 39.3779 124.734 39.3779H111.101Z" fill="black"/>
<path d="M150.099 16.2427C149.828 15.9718 149.481 15.836 149.059 15.836H132.922C132.499 15.836 132.153 15.9718 131.881 16.2427C131.61 16.5142 131.474 16.8607 131.474 17.2827C131.474 17.7049 131.61 18.0514 131.881 18.3227C132.153 18.5943 132.499 18.7295 132.922 18.7295H139.437V37.8107C139.437 38.253 139.588 38.6242 139.889 38.9257C140.191 39.2269 140.563 39.3779 141.005 39.3779C141.447 39.3779 141.82 39.2269 142.122 38.9257C142.423 38.6242 142.574 38.253 142.574 37.8107V18.7295H149.059C149.481 18.7295 149.828 18.5943 150.099 18.3227C150.371 18.0514 150.506 17.7049 150.506 17.2827C150.506 16.8607 150.371 16.5142 150.099 16.2427Z" fill="black"/>
<path d="M158.43 39.3779C157.988 39.3779 157.605 39.2269 157.284 38.9257C156.962 38.6242 156.802 38.253 156.802 37.8107V17.4033C156.802 16.9414 156.962 16.5642 157.284 16.2729C157.605 15.982 157.988 15.836 158.43 15.836C158.893 15.836 159.26 15.982 159.531 16.2729C159.803 16.5642 159.939 16.9414 159.939 17.4033V34.4947L174.416 16.4085C174.737 16.0271 175.14 15.836 175.623 15.836C176.085 15.836 176.462 15.982 176.754 16.2729C177.045 16.5642 177.191 16.9414 177.191 17.4033V37.8107C177.191 38.253 177.045 38.6242 176.754 38.9257C176.462 39.2269 176.085 39.3779 175.623 39.3779C175.18 39.3779 174.809 39.2269 174.507 38.9257C174.205 38.6242 174.054 38.253 174.054 37.8107V20.7495L159.637 38.8353C159.496 38.9966 159.315 39.1266 159.094 39.2269C158.872 39.3279 158.651 39.3779 158.43 39.3779Z" fill="black"/>
<path d="M34.3276 37.9531C34.3276 37.2996 33.8884 36.7203 33.2533 36.5655C32.8093 36.4571 32.3803 36.3159 31.967 36.138C30.8709 35.6658 29.9259 35.0123 29.1319 34.1782C28.3376 33.3444 27.719 32.365 27.2768 31.239C26.8346 30.1142 26.6135 28.8985 26.6135 27.5918C26.6135 26.2857 26.8346 25.0704 27.2768 23.9445C27.719 22.8197 28.3376 21.8397 29.1319 21.0059C29.9259 20.1723 30.8709 19.5239 31.967 19.0615C32.3782 18.8883 32.8051 18.7501 33.2464 18.6444C33.8844 18.4911 34.3276 17.9106 34.3276 17.2548C34.3276 16.3453 33.4888 15.6511 32.5997 15.8451C31.9462 15.9879 31.3179 16.1808 30.7152 16.4238C29.2472 17.0168 27.9859 17.8509 26.9299 18.9259C25.8742 20.0008 25.0551 21.272 24.4715 22.7389C23.8885 24.2056 23.5973 25.824 23.5973 27.5918C23.5973 29.3604 23.8885 30.9833 24.4715 32.4604C25.0551 33.9373 25.8742 35.2133 26.9299 36.2881C27.9859 37.3636 29.2472 38.198 30.7152 38.7901C31.3179 39.0337 31.9462 39.2261 32.6002 39.3689C33.4888 39.5631 34.3276 38.8687 34.3276 37.9592V37.9531Z" fill="#A0A0A0"/>
<path d="M47.2155 22.7389C46.6319 21.272 45.8076 20.0008 44.7424 18.9259C43.676 17.8509 42.4146 17.0168 40.957 16.4238C40.3603 16.1811 39.7373 15.9892 39.0882 15.8463C38.1996 15.651 37.3603 16.3458 37.3603 17.2553C37.3603 17.9109 37.8028 18.4916 38.441 18.6443C38.8825 18.7501 39.3093 18.8883 39.7203 19.0615C40.8156 19.5239 41.7663 20.1723 42.5704 21.0059C43.3742 21.8397 43.9928 22.8197 44.4255 23.9445C44.8578 25.0704 45.0741 26.2857 45.0741 27.5918C45.0741 28.8985 44.8578 30.1142 44.4255 31.239C43.9928 32.365 43.3742 33.3444 42.5704 34.1782C41.7663 35.0123 40.8156 35.6658 39.7203 36.138C39.3071 36.3159 38.8782 36.4571 38.4342 36.565C37.7991 36.7198 37.3603 37.2991 37.3603 37.9522V37.9585C37.3603 38.868 38.1996 39.563 39.0882 39.3676C39.7371 39.2253 40.3603 39.0327 40.957 38.7901C42.4146 38.198 43.676 37.3636 44.7424 36.288C45.8076 35.2133 46.6319 33.9373 47.2155 32.4604C47.7985 30.9833 48.0901 29.3604 48.0901 27.5918C48.0901 25.824 47.7985 24.2056 47.2155 22.7389Z" fill="#C91517"/>
<path d="M46.0446 5.78061H25.6413C25.0018 5.78061 24.4833 5.26241 24.4833 4.62336V3.79746C24.4833 3.15804 25.0018 2.64008 25.6413 2.64008H46.0446C46.6846 2.64008 47.2034 3.15804 47.2034 3.79746V4.62336C47.2034 5.26241 46.6846 5.78061 46.0446 5.78061Z" fill="#C91517"/>
<path d="M85.8846 24.0201C86.3264 22.9041 86.9449 21.9247 87.74 21.0804C88.5333 20.2366 89.4539 19.5738 90.4994 19.0914C91.545 18.6093 92.6608 18.3679 93.8476 18.3679C95.1545 18.3679 96.2053 18.5389 96.9995 18.8801C97.7941 19.2222 98.5634 19.7142 99.3073 20.3574C99.6688 20.6394 100.041 20.7645 100.423 20.734C100.804 20.7041 101.132 20.564 101.404 20.3122C101.675 20.0614 101.811 19.7449 101.811 19.3626C101.811 19.1821 101.795 19.0265 101.766 18.8955C101.735 18.7651 101.675 18.6344 101.584 18.5038C101.494 18.3733 101.368 18.2476 101.207 18.1268C100.081 17.2024 98.9599 16.5396 97.8439 16.1372C96.728 15.7359 95.3957 15.5345 93.8476 15.5345C92.1988 15.5345 90.6699 15.8459 89.2629 16.469C87.8555 17.0919 86.6236 17.9511 85.5681 19.0462C84.5125 20.1416 83.6877 21.4179 83.0946 22.8748C82.9237 23.294 82.7794 23.7236 82.6605 24.1625C82.4031 25.1095 83.1461 26.0365 84.1279 26.0365C84.798 26.0365 85.4007 25.5993 85.5759 24.9529C85.6612 24.636 85.7635 24.325 85.8846 24.0201Z" fill="black"/>
<path d="M100.468 34.4796C100.116 34.4495 99.7592 34.5652 99.3978 34.8263C98.5528 35.45 97.673 35.9366 96.7586 36.288C95.8429 36.6401 94.873 36.8159 93.8476 36.8159C92.6608 36.8159 91.545 36.5795 90.4994 36.1073C89.4539 35.6351 88.5333 34.9768 87.74 34.1326C86.9449 33.2889 86.3264 32.3095 85.8846 31.1938C85.7639 30.8901 85.662 30.5795 85.5768 30.2627C85.402 29.6155 84.7983 29.1775 84.1279 29.1775C83.1466 29.1775 82.4044 30.1032 82.6588 31.0502C82.7781 31.495 82.9228 31.9302 83.0946 32.3547C83.6877 33.8216 84.5125 35.1024 85.5681 36.1979C86.6236 37.2931 87.8602 38.1474 89.2777 38.7597C90.6961 39.3728 92.2194 39.6796 93.8476 39.6796C95.2148 39.6796 96.5174 39.4578 97.7539 39.0162C98.9899 38.5748 100.152 37.921 101.238 37.057C101.398 36.8964 101.519 36.7207 101.599 36.5295C101.679 36.3389 101.72 36.1427 101.72 35.9417C101.72 35.4998 101.599 35.1531 101.358 34.9013C101.116 34.6505 100.82 34.5097 100.468 34.4796Z" fill="black"/>
</g>
<defs>
<clipPath id="clip0_135_80">
<rect width="177" height="40" fill="white"/>
</clipPath>
</defs>
</svg>
