<svg width="40" height="40" viewBox="0 0 40 40" fill="none" xmlns="http://www.w3.org/2000/svg">
<rect width="40" height="40" rx="8" fill="#C91517"/>
<g clip-path="url(#clip0_2001_4244)">
<path d="M31.1633 19.6906C31.1633 19.5787 31.0724 19.4861 30.9605 19.4809C26.947 19.3289 24.5044 18.8169 22.7955 17.1081C21.0831 15.3957 20.5729 12.9513 20.4209 8.929C20.4174 8.81717 20.3248 8.72632 20.2112 8.72632H19.7429C19.6311 8.72632 19.5385 8.81717 19.5332 8.929C19.3812 12.9495 18.871 15.3957 17.1587 17.1081C15.4481 18.8187 13.0071 19.3289 8.99357 19.4809C8.88175 19.4844 8.79089 19.577 8.79089 19.6906V20.1589C8.79089 20.2707 8.88175 20.3633 8.99357 20.3685C13.0071 20.5205 15.4498 21.0325 17.1587 22.7414C18.8675 24.4502 19.3777 26.8878 19.5315 30.8941C19.535 31.006 19.6276 31.0969 19.7412 31.0969H20.2112C20.323 31.0969 20.4156 31.006 20.4209 30.8941C20.5746 26.8878 21.0848 24.4502 22.7938 22.7414C24.5044 21.0307 26.9452 20.5205 30.9588 20.3685C31.0706 20.365 31.1615 20.2724 31.1615 20.1589V19.6906H31.1633Z" fill="white"/>
</g>
<defs>
<clipPath id="clip0_2001_4244">
<rect width="24" height="24" fill="white" transform="translate(8 8)"/>
</clipPath>
</defs>
</svg>
