<svg width="40" height="40" viewBox="0 0 40 40" fill="none" xmlns="http://www.w3.org/2000/svg">
<rect width="40" height="40" rx="8" fill="#C91517"/>
<path fill-rule="evenodd" clip-rule="evenodd" d="M9.5119 18.6894C15.4155 16.0282 19.3522 14.2738 21.3219 13.4262C26.9458 11.006 28.1144 10.5856 28.8761 10.5717C29.0436 10.5687 29.4182 10.6116 29.6608 10.8153C30.0207 11.1175 30.0228 11.7734 29.9828 12.2075C29.6781 15.5206 28.3594 23.5605 27.6885 27.2712C27.4045 28.8413 26.8456 29.3679 26.3045 29.4193C25.1285 29.5313 24.2355 28.6152 23.0964 27.8427C21.3141 26.6339 20.3072 25.8814 18.577 24.7019C16.5776 23.3386 17.8738 22.5894 19.0132 21.3649C19.3115 21.0445 24.493 16.1683 24.5933 15.7259C24.6059 15.6706 24.6175 15.4643 24.4991 15.3555C24.3806 15.2466 24.2059 15.2838 24.0798 15.3134C23.901 15.3554 21.0537 17.3026 15.5378 21.1548C14.7296 21.7291 13.9975 22.0088 13.3417 21.9942C12.6186 21.978 11.2277 21.5712 10.1937 21.2234C8.92549 20.7969 7.91752 20.5714 8.00533 19.847C8.05106 19.4696 8.55322 19.0838 9.5119 18.6894Z" fill="white"/>
</svg>
