<svg width="40" height="40" viewBox="0 0 40 40" fill="none" xmlns="http://www.w3.org/2000/svg">
<rect width="40" height="40" rx="8" fill="#C91517"/>
<path d="M11.9425 9.57493C17.2212 8.16611 22.7763 8.16611 28.0558 9.57493C29.8278 10.0473 31.1812 11.5 31.5328 13.3059C32.1557 16.5057 32.1557 19.7965 31.5328 22.9964C31.1812 24.8023 29.8278 26.2541 28.0558 26.7273C27.9218 26.7629 27.7878 26.7976 27.6538 26.8315C27.3882 26.8985 27.2005 27.1401 27.2005 27.4156V31.2408C27.2005 31.3343 27.1459 31.4195 27.0615 31.4592C26.9771 31.4989 26.877 31.4857 26.8059 31.4253L22.9186 28.1312C22.591 27.8532 22.1699 27.7117 21.7414 27.7357C18.4431 27.9202 15.1365 27.5802 11.9442 26.7273C10.1722 26.2541 8.81878 24.8023 8.46719 22.9964C7.84427 19.7965 7.84427 16.5057 8.46719 13.3059C8.81878 11.5 10.1722 10.0481 11.9442 9.57493H11.9425ZM22.1591 22.9674C22.2907 22.9674 22.399 22.859 22.399 22.7267V18.1511H26.9597C27.0913 18.1511 27.1996 18.0427 27.1996 17.9104V13.5755C27.1996 13.4432 27.0913 13.3348 26.9597 13.3348H13.0386C12.9071 13.3348 12.7987 13.4432 12.7987 13.5755V17.9104C12.7987 18.0427 12.9071 18.1511 13.0386 18.1511H17.5993V22.7267C17.5993 22.8582 17.7077 22.9674 17.8392 22.9674H22.1591Z" fill="white"/>
</svg>
