<svg width="40" height="40" viewBox="0 0 40 40" fill="none" xmlns="http://www.w3.org/2000/svg">
<rect width="40" height="40" rx="8" fill="#C91517"/>
<path fill-rule="evenodd" clip-rule="evenodd" d="M20.2578 31.8798C17.9025 31.8798 16.808 31.5359 14.9054 30.1606C13.702 31.7078 9.89111 32.917 9.72492 30.8483C9.72492 29.2952 9.38108 27.9829 8.9914 26.5503C8.52722 24.7852 8 22.8196 8 19.9715C8 13.1692 13.5816 8.05176 20.1948 8.05176C26.8137 8.05176 31.9999 13.4214 31.9999 20.0345C32.0221 26.5454 26.7687 31.845 20.2578 31.8798ZM20.3553 13.9314C17.1346 13.7652 14.6246 15.9944 14.0687 19.4901C13.6103 22.3841 14.424 25.9084 15.1175 26.0918C15.4498 26.172 16.2865 25.4958 16.808 24.9743C17.6703 25.57 18.6745 25.9278 19.7192 26.0116C23.0563 26.1721 25.9077 23.6316 26.1318 20.2981C26.2622 16.9577 23.6928 14.1283 20.3553 13.9371L20.3553 13.9314Z" fill="white"/>
</svg>
