<svg width="24" height="24" viewBox="0 0 24 24" fill="none" xmlns="http://www.w3.org/2000/svg">
<g clip-path="url(#clip0_135_265)">
<path d="M2.59483 8.43002L21.4057 8.42999C22.8386 8.42999 24.0002 9.59163 24.0002 11.0246V12.9705C24.0002 14.4035 22.8386 15.5651 21.4057 15.5651L2.59483 15.5651C1.16188 15.5652 0.000244141 14.4035 0.000244141 12.9705V11.0246C0.000244141 9.59165 1.16188 8.43002 2.59483 8.43002Z" fill="#CECECE"/>
<path d="M2.59483 2.28882e-05L21.4057 0C22.8386 0 24.0002 1.16164 24.0002 2.59458V4.54053C24.0002 5.97348 22.8386 7.13512 21.4057 7.13512L2.59483 7.13514C1.16188 7.13517 0.000244141 5.97353 0.000244141 4.54055V2.59461C0.000244141 1.16166 1.16188 2.28882e-05 2.59483 2.28882e-05Z" fill="#CECECE"/>
<path d="M2.59483 17L21.4057 17C22.8386 17 24.0002 18.1616 24.0002 19.5946V21.5405C24.0002 22.9735 22.8386 24.1351 21.4057 24.1351L2.59483 24.1351C1.16188 24.1352 0.000244141 22.9735 0.000244141 21.5406V19.5946C0.000244141 18.1617 1.16188 17 2.59483 17Z" fill="#CECECE"/>
</g>
<defs>
<clipPath id="clip0_135_265">
<rect width="24" height="24" fill="white"/>
</clipPath>
</defs>
</svg>
