<svg width="24" height="24" viewBox="0 0 24 24" fill="none" xmlns="http://www.w3.org/2000/svg">
<g clip-path="url(#clip0_135_1039)">
<path d="M2.59507 8.43002L21.4059 8.42999C22.8388 8.42999 24.0005 9.59163 24.0005 11.0246V12.9705C24.0005 14.4035 22.8388 15.5651 21.4059 15.5651L2.59507 15.5651C1.16213 15.5652 0.000488281 14.4035 0.000488281 12.9705V11.0246C0.000488281 9.59165 1.16213 8.43002 2.59507 8.43002Z" fill="#999999"/>
<path d="M2.59507 2.28882e-05L21.4059 0C22.8388 0 24.0005 1.16164 24.0005 2.59458V4.54053C24.0005 5.97348 22.8388 7.13512 21.4059 7.13512L2.59507 7.13514C1.16213 7.13517 0.000488281 5.97353 0.000488281 4.54055V2.59461C0.000488281 1.16166 1.16213 2.28882e-05 2.59507 2.28882e-05Z" fill="#999999"/>
<path d="M2.59507 17L21.4059 17C22.8388 17 24.0005 18.1616 24.0005 19.5946V21.5405C24.0005 22.9735 22.8388 24.1351 21.4059 24.1351L2.59507 24.1351C1.16213 24.1352 0.000488281 22.9735 0.000488281 21.5406V19.5946C0.000488281 18.1617 1.16213 17 2.59507 17Z" fill="#999999"/>
</g>
<defs>
<clipPath id="clip0_135_1039">
<rect width="24" height="24" fill="white"/>
</clipPath>
</defs>
</svg>
