<svg width="24" height="24" viewBox="0 0 24 24" fill="none" xmlns="http://www.w3.org/2000/svg">
<g clip-path="url(#clip0_135_642)">
<path d="M2.59483 16.8653H4.54078C5.97372 16.8653 7.13536 18.0269 7.13536 19.4598V21.4058C7.13536 22.8387 5.97372 24.0004 4.54078 24.0004H2.59483C1.16188 24.0004 0.000244141 22.8388 0.000244141 21.4058V19.4599C0.000244141 18.0269 1.16188 16.8653 2.59483 16.8653Z" fill="#999999"/>
<path d="M2.59483 8.43265H4.54078C5.97372 8.43265 7.13536 9.59429 7.13536 11.0272V12.9732C7.13536 14.4061 5.97372 15.5678 4.54078 15.5678H2.59483C1.16188 15.5678 0.000244141 14.4062 0.000244141 12.9732V11.0273C0.000244141 9.59429 1.16188 8.43265 2.59483 8.43265Z" fill="#999999"/>
<path d="M2.59483 3.05176e-05H4.54078C5.97372 3.05176e-05 7.13536 1.16167 7.13536 2.59461V4.54056C7.13536 5.97351 5.97372 7.13515 4.54078 7.13515H2.59483C1.16188 7.13518 0.000244141 5.97354 0.000244141 4.54059V2.59465C0.000244141 1.16167 1.16188 3.05176e-05 2.59483 3.05176e-05Z" fill="#999999"/>
<path d="M11.0265 8.43002L21.4057 8.42999C22.8386 8.42999 24.0002 9.59163 24.0002 11.0246V12.9705C24.0002 14.4035 22.8386 15.5651 21.4057 15.5651L11.0265 15.5651C9.59352 15.5652 8.43188 14.4035 8.43188 12.9705V11.0246C8.43188 9.59165 9.59352 8.43002 11.0265 8.43002Z" fill="#999999"/>
<path d="M11.0265 2.28882e-05L21.4057 0C22.8386 0 24.0002 1.16164 24.0002 2.59458V4.54053C24.0002 5.97348 22.8386 7.13512 21.4057 7.13512L11.0265 7.13514C9.59352 7.13517 8.43188 5.97353 8.43188 4.54055V2.59461C8.43188 1.16166 9.59352 2.28882e-05 11.0265 2.28882e-05Z" fill="#999999"/>
<path d="M11.0265 17L21.4057 17C22.8386 17 24.0002 18.1616 24.0002 19.5946V21.5405C24.0002 22.9735 22.8386 24.1351 21.4057 24.1351L11.0265 24.1351C9.59352 24.1352 8.43188 22.9735 8.43188 21.5406V19.5946C8.43188 18.1617 9.59352 17 11.0265 17Z" fill="#999999"/>
</g>
<defs>
<clipPath id="clip0_135_642">
<rect width="24" height="24" fill="white"/>
</clipPath>
</defs>
</svg>
