<svg width="24" height="24" viewBox="0 0 24 24" fill="none" xmlns="http://www.w3.org/2000/svg">
<g clip-path="url(#clip0_135_631)">
<path d="M11.0265 8.43265H12.9724C14.4054 8.43265 15.567 9.59429 15.567 11.0272V12.9732C15.567 14.4061 14.4054 15.5678 12.9724 15.5678H11.0265C9.59352 15.5678 8.43188 14.4062 8.43188 12.9732V11.0272C8.43188 9.59429 9.59352 8.43265 11.0265 8.43265Z" fill="#CECECE"/>
<path d="M19.4601 8.43283H21.406C22.839 8.43283 24.0006 9.59447 24.0006 11.0274V12.9734C24.0006 14.4063 22.839 15.5679 21.406 15.5679H19.4601C18.0271 15.5679 16.8655 14.4063 16.8655 12.9734V11.0274C16.8654 9.59447 18.0271 8.43283 19.4601 8.43283Z" fill="#CECECE"/>
<path d="M11.0265 16.8653H12.9724C14.4054 16.8653 15.567 18.0269 15.567 19.4598V21.4058C15.567 22.8387 14.4054 24.0004 12.9724 24.0004H11.0265C9.59352 24.0004 8.43188 22.8388 8.43188 21.4058V19.4599C8.43188 18.0269 9.59352 16.8653 11.0265 16.8653Z" fill="#CECECE"/>
<path d="M19.4601 16.8653H21.406C22.839 16.8653 24.0006 18.0269 24.0006 19.4598V21.4058C24.0006 22.8388 22.839 24.0004 21.406 24.0004H19.4601C18.0271 24.0004 16.8655 22.8388 16.8655 21.4058V19.4599C16.8654 18.0269 18.0271 16.8653 19.4601 16.8653Z" fill="#CECECE"/>
<path d="M2.59483 16.8653H4.54078C5.97372 16.8653 7.13536 18.0269 7.13536 19.4598V21.4058C7.13536 22.8387 5.97372 24.0004 4.54078 24.0004H2.59483C1.16188 24.0004 0.000244141 22.8388 0.000244141 21.4058V19.4599C0.000244141 18.0269 1.16188 16.8653 2.59483 16.8653Z" fill="#CECECE"/>
<path d="M2.59483 8.43265H4.54078C5.97372 8.43265 7.13536 9.59429 7.13536 11.0272V12.9732C7.13536 14.4061 5.97372 15.5678 4.54078 15.5678H2.59483C1.16188 15.5678 0.000244141 14.4062 0.000244141 12.9732V11.0273C0.000244141 9.59429 1.16188 8.43265 2.59483 8.43265Z" fill="#CECECE"/>
<path d="M2.59483 3.05176e-05H4.54078C5.97372 3.05176e-05 7.13536 1.16167 7.13536 2.59461V4.54056C7.13536 5.97351 5.97372 7.13515 4.54078 7.13515H2.59483C1.16188 7.13518 0.000244141 5.97354 0.000244141 4.54059V2.59465C0.000244141 1.16167 1.16188 3.05176e-05 2.59483 3.05176e-05Z" fill="#CECECE"/>
<path d="M11.0265 3.05176e-05H12.9724C14.4054 3.05176e-05 15.567 1.16167 15.567 2.59462V4.54056C15.567 5.97351 14.4054 7.13515 12.9724 7.13515H11.0265C9.59352 7.13518 8.43188 5.97354 8.43188 4.54056V2.59462C8.43188 1.16167 9.59352 3.05176e-05 11.0265 3.05176e-05Z" fill="#CECECE"/>
<path d="M19.4601 3.05176e-05H21.406C22.839 3.05176e-05 24.0006 1.16167 24.0006 2.59462V4.54056C24.0006 5.97351 22.839 7.13515 21.406 7.13515H19.4601C18.0271 7.13515 16.8655 5.97351 16.8655 4.54056V2.59462C16.8654 1.16167 18.0271 3.05176e-05 19.4601 3.05176e-05Z" fill="#CECECE"/>
</g>
<defs>
<clipPath id="clip0_135_631">
<rect width="24" height="24" fill="white"/>
</clipPath>
</defs>
</svg>
